<?xml version="1.0" encoding="UTF-8"?>
<svg version="1.1" xmlns="http://www.w3.org/2000/svg" width="250" height="330">
<path d="M0 0 C4.78668076 1.81932785 8.25657149 4.67382427 11 9 C11.75 11.8125 11.75 11.8125 12 14 C13.3303125 14.0928125 13.3303125 14.0928125 14.6875 14.1875 C18.79139808 15.19411651 20.36855033 16.7493857 23 20 C23 20.99 23 21.98 23 23 C23.639375 22.649375 24.27875 22.29875 24.9375 21.9375 C30.11844938 20.35149509 34.94401937 21.10609538 39.875 23.25 C43.13980261 25.93866098 44.72789312 28.19077871 45.3671875 32.44140625 C45.53520283 34.1902931 45.67714522 35.94194177 45.7890625 37.6953125 C45.92606195 40.15892635 45.92606195 40.15892635 47 43 C48.03125 43.061875 49.0625 43.12375 50.125 43.1875 C55.03276078 44.21654662 56.59958767 45.35670107 60 49 C60.875 52.3125 60.875 52.3125 61 55 C61.82886719 55.09152344 62.65773437 55.18304688 63.51171875 55.27734375 C74.76806235 57.60928503 86.4656137 64.78255376 93.42578125 73.859375 C99.47098817 83.91394597 95.36816388 98.36258656 93.84448242 109.35986328 C93.61223723 111.07928686 93.38067379 112.79880264 93.1497345 114.5184021 C92.52479986 119.15561777 91.88982122 123.79140482 91.25249648 128.42693186 C90.58442238 133.29559098 89.92423983 138.16532145 89.26277161 143.03488159 C88.1512516 151.20780746 87.03299236 159.37979052 85.91088867 167.55126953 C84.61632151 176.97943204 83.33334832 186.40911871 82.0563671 195.83967793 C80.95652937 203.95971884 79.8503964 212.07888427 78.73905641 220.19735897 C78.07668171 225.03612944 77.41644048 229.87516417 76.76189232 234.71500015 C76.14619331 239.26494952 75.52256266 243.81374443 74.89295769 248.3617897 C74.66405861 250.02460223 74.43784984 251.68778782 74.21462631 253.35137177 C72.00008165 269.83055235 68.72851557 285.07571052 55 296 C24.57164096 317.61126363 -13.59800862 322.74951905 -50 317 C-70.55075507 313.31676895 -94.98427329 305.98316147 -107.94140625 288.359375 C-112.79760969 280.93820398 -116.15207875 274.12773157 -117.3478241 265.30935669 C-117.45655973 264.56651928 -117.56529537 263.82368187 -117.67732602 263.05833423 C-118.03661724 260.58716896 -118.38195777 258.11426408 -118.72729492 255.64111328 C-118.98306948 253.8614844 -119.23968839 252.0819767 -119.49708557 250.30258179 C-120.19186837 245.48148983 -120.87437942 240.65873385 -121.55433822 235.83553171 C-122.2687286 230.78064021 -122.99326492 225.72720212 -123.71638489 220.67355347 C-124.92928717 212.18583092 -126.13441048 203.69703196 -127.3347168 195.20751953 C-128.72078844 185.40467679 -130.11818858 175.60350154 -131.52190703 165.80317128 C-132.87392902 156.36244303 -134.21877873 146.92070726 -135.56008339 137.47845078 C-136.13008086 133.46641067 -136.70240846 129.45471332 -137.27660179 125.44327164 C-137.95305439 120.71465456 -138.62315249 115.98517824 -139.28844261 111.25497818 C-139.53298974 109.52333216 -139.77964617 107.79198245 -140.02861404 106.06096649 C-143.31426661 83.19139426 -143.31426661 83.19139426 -140.25 77.6875 C-139.70472656 76.6975 -139.70472656 76.6975 -139.1484375 75.6875 C-138 74 -138 74 -135.875 72.1875 C-133.59760964 69.53054458 -133.65083212 68.11787721 -133.25 64.6875 C-132.42517031 59.03476806 -130.39771984 56.69952691 -125.97265625 53.2421875 C-122.97236933 51.35289792 -120.47068307 50.86185347 -117 50.875 C-116.319375 50.87242188 -115.63875 50.86984375 -114.9375 50.8671875 C-113 51 -113 51 -110 52 C-109.773125 51.4225 -109.54625 50.845 -109.3125 50.25 C-107.08951132 46.43916226 -104.14211008 44.38070336 -100 43 C-98.60560336 42.93334624 -97.20830125 42.91461801 -95.8125 42.9375 C-94.554375 42.958125 -93.29625 42.97875 -92 43 C-91.91363281 42.41992188 -91.82726562 41.83984375 -91.73828125 41.2421875 C-90.69425285 35.43777275 -89.35420145 32.05041996 -85 28 C-82.1875 27.125 -82.1875 27.125 -80 27 C-79.938125 26.278125 -79.87625 25.55625 -79.8125 24.8125 C-78.56787559 20.50418473 -75.74561697 18.26406746 -72.1875 15.6875 C-67.42234664 14.18988037 -63.33845951 14.51094749 -58.75 16.1875 C-55.75415292 18.16203558 -53.95215525 19.99668423 -52 23 C-52 23.99 -52 24.98 -52 26 C-50.906875 25.34 -49.81375 24.68 -48.6875 24 C-46.06292462 22.41535071 -45.1743622 22 -42 22 C-42.495 21.01 -42.495 21.01 -43 20 C-43.40399154 14.74810993 -42.88990343 11.43118526 -40 7 C-36.30797318 3.136251 -33.34828595 1.24128244 -28.08984375 0.84765625 C-25.04567817 1.06956739 -22.52617445 2.05814016 -19.76171875 3.30859375 C-17.84998436 4.18266653 -17.84998436 4.18266653 -15 4 C-13.948125 3.34 -12.89625 2.68 -11.8125 2 C-7.83666136 -0.34365225 -4.53780394 -0.88433581 0 0 Z " fill="#FA3308" transform="translate(148,6)"/>
<path d="M0 0 C4.78668076 1.81932785 8.25657149 4.67382427 11 9 C11.75 11.8125 11.75 11.8125 12 14 C13.3303125 14.0928125 13.3303125 14.0928125 14.6875 14.1875 C18.79139808 15.19411651 20.36855033 16.7493857 23 20 C23 20.99 23 21.98 23 23 C23.639375 22.649375 24.27875 22.29875 24.9375 21.9375 C30.11844938 20.35149509 34.94401937 21.10609538 39.875 23.25 C43.13980261 25.93866098 44.72789312 28.19077871 45.3671875 32.44140625 C45.53520283 34.1902931 45.67714522 35.94194177 45.7890625 37.6953125 C45.92606195 40.15892635 45.92606195 40.15892635 47 43 C48.03125 43.061875 49.0625 43.12375 50.125 43.1875 C54.92952697 44.19490082 56.53529968 45.61779254 60 49 C61.57170996 52.14341993 61.23175783 55.55771451 61 59 C60.67 59.99 60.34 60.98 60 62 C61.051875 62.04125 62.10375 62.0825 63.1875 62.125 C68.22500819 63.28114942 69.11225169 64.83824509 72 69 C73.60725635 72.21451269 73.05748185 75.43612536 73 79 C74.11375 79.185625 74.11375 79.185625 75.25 79.375 C77.80141485 79.95486701 79.7267573 80.73708739 82 82 C78.17050262 90.63994975 69.50340563 94.92858165 61.078125 98.21435547 C60.39234375 98.47361816 59.7065625 98.73288086 59 99 C58.25492188 99.28375488 57.50984375 99.56750977 56.7421875 99.85986328 C7.45422906 117.99616792 -62.5614632 118.52970312 -110.68237305 96.68530273 C-125.61317384 89.52713266 -125.61317384 89.52713266 -130 84 C-130.6953125 81.625 -130.6953125 81.625 -131.125 79 C-131.60103642 76.19389055 -132.09681479 73.70955563 -133 71 C-133.4061569 66.82908107 -133.47351998 63.15749328 -131.875 59.25 C-128.79396994 55.55276393 -125.64766299 52.549221 -121 51 C-119.0625 50.8671875 -119.0625 50.8671875 -117 50.875 C-116.319375 50.87242188 -115.63875 50.86984375 -114.9375 50.8671875 C-113 51 -113 51 -110 52 C-109.773125 51.4225 -109.54625 50.845 -109.3125 50.25 C-107.08951132 46.43916226 -104.14211008 44.38070336 -100 43 C-98.60560336 42.93334624 -97.20830125 42.91461801 -95.8125 42.9375 C-94.554375 42.958125 -93.29625 42.97875 -92 43 C-91.91363281 42.41992188 -91.82726562 41.83984375 -91.73828125 41.2421875 C-90.69425285 35.43777275 -89.35420145 32.05041996 -85 28 C-82.1875 27.125 -82.1875 27.125 -80 27 C-79.938125 26.278125 -79.87625 25.55625 -79.8125 24.8125 C-78.56787559 20.50418473 -75.74561697 18.26406746 -72.1875 15.6875 C-67.42234664 14.18988037 -63.33845951 14.51094749 -58.75 16.1875 C-55.75415292 18.16203558 -53.95215525 19.99668423 -52 23 C-52 23.99 -52 24.98 -52 26 C-50.906875 25.34 -49.81375 24.68 -48.6875 24 C-46.06292462 22.41535071 -45.1743622 22 -42 22 C-42.495 21.01 -42.495 21.01 -43 20 C-43.40399154 14.74810993 -42.88990343 11.43118526 -40 7 C-36.30797318 3.136251 -33.34828595 1.24128244 -28.08984375 0.84765625 C-25.04567817 1.06956739 -22.52617445 2.05814016 -19.76171875 3.30859375 C-17.84998436 4.18266653 -17.84998436 4.18266653 -15 4 C-13.948125 3.34 -12.89625 2.68 -11.8125 2 C-7.83666136 -0.34365225 -4.53780394 -0.88433581 0 0 Z " fill="#FED500" transform="translate(148,6)"/>
<path d="M0 0 C2.8961496 0.3097647 5.79189576 0.62271188 8.6875 0.9375 C9.50412109 1.02451172 10.32074219 1.11152344 11.16210938 1.20117188 C11.95810547 1.28818359 12.75410156 1.37519531 13.57421875 1.46484375 C14.66609497 1.58267212 14.66609497 1.58267212 15.7800293 1.70288086 C18 2 18 2 20.43383789 2.51586914 C23.14937135 3.02818032 25.72341041 3.19141592 28.484375 3.28125 C30.00998047 3.33732422 30.00998047 3.33732422 31.56640625 3.39453125 C33.70441002 3.46536082 35.84243122 3.53566583 37.98046875 3.60546875 C39.49833984 3.66154297 39.49833984 3.66154297 41.046875 3.71875 C41.97338867 3.74904297 42.89990234 3.77933594 43.85449219 3.81054688 C46 4 46 4 47 5 C47.11983655 6.43930601 47.17173907 7.88433559 47.19618225 9.32841492 C47.21438522 10.26459656 47.2325882 11.2007782 47.25134277 12.16532898 C47.26644897 13.20220352 47.28155518 14.23907806 47.29711914 15.30737305 C47.31677231 16.3943045 47.33642548 17.48123596 47.35667419 18.60110474 C47.42108085 22.23790959 47.47826112 25.87478915 47.53515625 29.51171875 C47.57824971 32.06810535 47.62166638 34.62448652 47.66539001 37.18086243 C47.7567055 42.58415205 47.84465756 47.98748115 47.92993164 53.39086914 C48.01598999 58.84146496 48.10595834 64.29197527 48.20043945 69.74243164 C48.77902541 103.16434036 49.15378312 136.57291169 49 170 C47.42917089 170.02001885 45.85826631 170.0341577 44.28735352 170.04589844 C43.41256851 170.05441833 42.53778351 170.06293823 41.63648987 170.07171631 C37.61262643 169.96226145 33.84375882 169.16911972 29.9375 168.25 C29.19951172 168.09273437 28.46152344 167.93546875 27.70117188 167.7734375 C23.6638129 166.8566573 19.99309215 165.63755272 16.22094727 163.92089844 C15.425923 163.56106873 14.63089874 163.20123901 13.81178284 162.83050537 C13.2138945 162.5564386 12.61600616 162.28237183 12 162 C10.1289363 139.09788998 8.26294664 116.1953731 6.40467834 93.29222107 C5.60091839 83.38748109 4.7948858 73.48293735 3.98313618 63.57884884 C3.50260786 57.71311718 3.0257141 51.8470981 2.55198956 45.98081303 C2.28323211 42.65412243 2.01217694 39.32766091 1.73770142 36.00143433 C1.43616068 32.34377942 1.14112999 28.6856535 0.84765625 25.02734375 C0.76050354 23.98932617 0.67335083 22.95130859 0.58355713 21.88183594 C0.00738168 14.57734597 -0.09017335 7.32546489 0 0 Z " fill="#FEFDFC" transform="translate(68,141)"/>
<path d="M0 0 C-0.63987835 13.72824836 -1.6107319 27.40970296 -2.7421875 41.10546875 C-2.9132074 43.20207015 -3.0839465 45.29869448 -3.25442505 47.39533997 C-3.70141674 52.88565727 -4.15139833 58.37572481 -4.60229492 63.86572266 C-5.31480674 72.54471624 -6.02377899 81.22399904 -6.73111725 89.90341568 C-6.90477838 92.03338701 -7.07868172 94.1633386 -7.25283051 96.29327011 C-8.16842038 107.49844058 -9.06438596 118.70442753 -9.89160156 129.91650391 C-9.96086161 130.85381631 -10.03012165 131.79112871 -10.10148048 132.75684452 C-10.42473782 137.14557302 -10.74344784 141.53457091 -11.0553894 145.92411804 C-11.16725647 147.4654469 -11.27916205 149.00677296 -11.39111328 150.5480957 C-11.43846241 151.23575075 -11.48581154 151.9234058 -11.53459549 152.63189888 C-12.04979392 159.6547398 -12.04979392 159.6547398 -13 163 C-22.97303408 169.47733141 -38.32069823 171.06042212 -50 171 C-50.0591172 155.53157205 -49.8789682 140.07505228 -49.59765625 124.609375 C-49.55510833 122.20737894 -49.51266583 119.80538101 -49.47032166 117.40338135 C-49.38158689 112.39454913 -49.29150149 107.38574355 -49.20043945 102.37695312 C-49.08572541 96.06070673 -48.97455052 89.74440386 -48.86432838 83.4280777 C-48.40645385 57.27985664 -47.92006954 31.13664447 -47 5 C-45.99735107 4.91959473 -44.99470215 4.83918945 -43.96166992 4.75634766 C-40.19086062 4.4524771 -36.42067984 4.14132295 -32.65063477 3.828125 C-31.02839803 3.69434554 -29.40600373 3.56246125 -27.78344727 3.43261719 C-18.71222375 2.70535289 -8.94885542 0 0 0 Z " fill="#FEFDFD" transform="translate(183,141)"/>
<path d="M0 0 C5.01919787 1.85575707 9.61727858 4.42691886 14.296875 6.99023438 C14.92851563 7.33248047 15.56015625 7.67472656 16.2109375 8.02734375 C16.83581055 8.37522949 17.46068359 8.72311523 18.10449219 9.08154297 C20.25728413 10.2007228 20.25728413 10.2007228 23.8515625 11.00390625 C27 13 27 13 27.68797302 15.26731873 C27.82244339 16.21607376 27.95691376 17.1648288 28.09545898 18.14233398 C28.2503479 19.22655136 28.40523682 20.31076874 28.56481934 21.42784119 C29.3471801 27.84981055 30.00915457 34.27891541 30.62109375 40.71875 C30.76759225 42.22639776 30.91449803 43.734006 31.06178284 45.24157715 C31.44717907 49.19564886 31.82793315 53.15015249 32.20739746 57.10479736 C32.88157174 64.12246878 33.56398674 71.13934603 34.24609375 78.15625 C34.35710261 79.30033514 34.35710261 79.30033514 34.47035408 80.46753311 C35.78102409 93.96248048 37.20174886 107.44342244 38.66732788 120.92248535 C39.45002887 128.16316955 40.20010162 135.4071843 40.93530273 142.65283203 C41.10674341 144.3333822 41.28032436 146.01371511 41.45581055 147.69384766 C42.37365325 156.48879821 43.26261382 165.14357546 43 174 C37.00977474 171.90022353 32.77698442 168.07010978 28 164 C27.29617187 163.42894531 26.59234375 162.85789062 25.8671875 162.26953125 C17.71770514 155.09184909 18.44788113 143.16663217 17.25 133 C15.68097259 119.97241204 13.88586133 106.98521226 12 94 C10.01212651 80.29260148 8.14528248 66.58279469 6.47753906 52.83276367 C5.5954241 45.6117188 4.65533937 38.40327021 3.64453125 31.19921875 C3.52871201 30.3736145 3.41289276 29.54801025 3.29356384 28.6973877 C2.72645565 24.66732175 2.15337969 20.63817883 1.57397461 16.60986328 C1.36699704 15.15267321 1.16004582 13.69547939 0.953125 12.23828125 C0.76911133 10.95993408 0.58509766 9.68158691 0.39550781 8.36450195 C0.06210366 5.52830281 -0.0829006 2.84953814 0 0 Z " fill="#FEFCFB" transform="translate(21,123)"/>
<path d="M0 0 C0.1139016 6.129045 -0.24099527 11.88977852 -1.171875 17.94140625 C-1.29420502 18.77409027 -1.41653503 19.60677429 -1.54257202 20.46469116 C-1.80423186 22.24328171 -2.06861041 24.02147412 -2.33551025 25.79928589 C-3.04251418 30.51255865 -3.72833145 35.22890496 -4.4140625 39.9453125 C-4.55170013 40.88972702 -4.68933777 41.83414154 -4.83114624 42.80717468 C-6.04208953 51.17108655 -7.10959729 59.54791756 -8.125 67.9375 C-9.42352852 78.61836372 -10.88344797 89.25971292 -12.49609375 99.89746094 C-13.59454744 107.17363549 -14.62788511 114.45636619 -15.60009766 121.75048828 C-15.94630344 124.34719267 -16.29743223 126.9432461 -16.65380859 129.53857422 C-17.35638392 134.72288366 -18.04438899 139.87273753 -18.34375 145.09765625 C-18.76231051 151.88398868 -19.57733769 156.3967541 -24.375 161.5 C-38.88771186 174 -38.88771186 174 -43 174 C-41.73910706 156.85412411 -40.28923296 139.7362838 -38.625 122.625 C-38.51672882 121.50314301 -38.40845764 120.38128601 -38.29690552 119.22543335 C-36.81034215 103.83664139 -35.21954203 88.46442277 -33.45410156 73.10522461 C-32.53333378 65.05349227 -31.69517557 56.99814842 -30.93359375 48.9296875 C-30.80019844 47.52317177 -30.80019844 47.52317177 -30.66410828 46.08824158 C-30.23144595 41.51250974 -29.80691133 36.93622412 -29.39428711 32.35864258 C-29.23962407 30.70131563 -29.08476726 29.04400675 -28.9296875 27.38671875 C-28.86522934 26.64046234 -28.80077118 25.89420593 -28.73435974 25.12533569 C-28.30052444 20.56900828 -27.68217415 16.29308673 -26 12 C-23.89282227 10.3190918 -23.89282227 10.3190918 -21.31640625 9.19921875 C-20.38892578 8.77962891 -19.46144531 8.36003906 -18.50585938 7.92773438 C-17.53455078 7.51845703 -16.56324219 7.10917969 -15.5625 6.6875 C-13.64651229 5.83864468 -11.73112109 4.98844131 -9.81640625 4.13671875 C-8.96506104 3.77280029 -8.11371582 3.40888184 -7.23657227 3.03393555 C-0.67367178 0 -0.67367178 0 0 0 Z " fill="#FEFCFB" transform="translate(229,124)"/>
</svg>
