<?xml version="1.0" encoding="UTF-8"?>
<svg version="1.1" xmlns="http://www.w3.org/2000/svg" width="1024" height="1024">
<path d="M0 0 C1.37072504 0.17904191 2.7414947 0.35774248 4.11230469 0.53613281 C51.30802103 6.7573786 97.40061175 18.79208927 141 38 C141.9271582 38.40186523 142.85431641 38.80373047 143.80957031 39.21777344 C184.19116589 56.74612605 221.795704 80.7495471 255.14453125 109.44799805 C256.50757175 110.58810968 257.89405858 111.70033954 259.29296875 112.79614258 C267.32588761 119.1433157 274.49134439 126.21937343 281.68994141 133.48413086 C283.75497324 135.56751744 285.82799396 137.64269165 287.90234375 139.71679688 C289.24266116 141.06202824 290.58252091 142.40771577 291.921875 143.75390625 C292.52932556 144.36246964 293.13677612 144.97103302 293.76263428 145.59803772 C298.02885056 149.91081125 302.04322384 154.4031293 306 159 C306.845625 159.96421875 307.69125 160.9284375 308.5625 161.921875 C375.00108283 239.00766662 414.79587165 339.2189776 419.25 500.1875 C418.89230043 504.46554769 418.4646007 508.73231983 418 513 C417.87641113 514.15338867 417.75282227 515.30677734 417.62548828 516.49511719 C411.62100265 570.48454075 396.13252734 621.93122917 373 671 C372.56333008 671.92989746 372.12666016 672.85979492 371.67675781 673.81787109 C357.30885551 704.15454032 338.48230636 731.78314504 319 759 C322.63 759.66 326.26 760.32 330 761 C329.32689225 766.76053616 327.37949512 771.91177446 325.40234375 777.32421875 C325.04862198 778.30743607 324.69490021 779.29065338 324.33045959 780.30366516 C323.20430586 783.43337899 322.07166092 786.56067967 320.9375 789.6875 C319.44117749 793.81446931 317.95117719 797.94364303 316.46484375 802.07421875 C316.11800034 803.02423264 315.77115692 803.97424652 315.4138031 804.95304871 C315.09669876 805.8343898 314.77959442 806.7157309 314.45288086 807.6237793 C314.17165878 808.3984404 313.89043671 809.1731015 313.60069275 809.97123718 C312.85804755 812.12678892 312.85804755 812.12678892 313 815 C313.56581787 815.26514404 314.13163574 815.53028809 314.71459961 815.8034668 C342.69645166 828.95507738 370.81305296 842.45499229 395 862 C396.02738281 862.825 397.05476562 863.65 398.11328125 864.5 C404.30350439 869.56049811 410.13215296 874.93639615 415.8125 880.5625 C416.4297998 881.17053467 417.04709961 881.77856934 417.68310547 882.4050293 C422 886.75333062 422 886.75333062 422 889 C416.83842122 889.88691917 411.79561873 890.15329519 406.56298828 890.28979492 C383.05161016 890.91818143 361.64465302 894.54089714 340 904 C340.144375 904.89332031 340.28875 905.78664063 340.4375 906.70703125 C345.69176786 943.29074694 341.79988732 982.75826242 331 1018 C330.34 1018 329.68 1018 329 1018 C327.73046875 1016.70703125 327.73046875 1016.70703125 326.1875 1014.8125 C294.33170663 977.55965073 251.4374847 957.87908202 203 954 C203.65245798 946.90638554 204.65483201 939.99487357 206 933 C205.33274902 932.9597168 204.66549805 932.91943359 203.97802734 932.87792969 C193.58877186 932.16838675 183.27944764 930.88619632 172.94293213 929.64590454 C140.05462127 925.72158327 107.09959525 922.52250271 74.06640625 920.09375 C73.24913559 920.03312378 72.43186493 919.97249756 71.58982849 919.91003418 C28.25021162 916.81373374 -15.11797444 915.6544801 -58.55957031 915.73925781 C-64.45175798 915.75066435 -70.34376507 915.74384481 -76.23594666 915.73237991 C-107.20547453 915.68133771 -138.07301057 916.36735945 -169 918 C-169.742855 918.03887833 -170.48570999 918.07775665 -171.25107574 918.11781311 C-180.08977677 918.58338243 -188.92058181 919.13428642 -197.75 919.75 C-199.54046249 919.87255661 -199.54046249 919.87255661 -201.36709595 919.99758911 C-239.74877733 922.64810818 -278.08093511 926.43430806 -316.2175293 931.52709961 C-316.97572968 931.6272084 -317.73393005 931.7273172 -318.5151062 931.83045959 C-320.50585976 932.09463842 -322.49577155 932.36514004 -324.4855957 932.63623047 C-328 933 -328 933 -335 933 C-334.01 943.89 -334.01 943.89 -333 955 C-335.35898437 955.23783203 -335.35898437 955.23783203 -337.765625 955.48046875 C-385.546147 960.56829644 -425.82121884 981.18122363 -458 1017 C-458.33 1017.66 -458.66 1018.32 -459 1019 C-459.99 1018.67 -460.98 1018.34 -462 1018 C-462.82788086 1015.86816406 -462.82788086 1015.86816406 -463.46484375 1013.015625 C-463.7057373 1011.95142334 -463.94663086 1010.88722168 -464.19482422 1009.79077148 C-464.43990723 1008.62231689 -464.68499023 1007.4538623 -464.9375 1006.25 C-465.19547363 1005.03062744 -465.45344727 1003.81125488 -465.71923828 1002.55493164 C-466.51000764 998.7086039 -467.26346814 994.85706218 -468 991 C-468.21897949 989.86353027 -468.43795898 988.72706055 -468.66357422 987.55615234 C-471.58852161 971.70745173 -472.36551641 956.13559729 -472.375 940.0625 C-472.37699402 939.16667206 -472.37898804 938.27084412 -472.38104248 937.34786987 C-472.37835536 926.71481554 -471.88825522 916.48970319 -470 906 C-475.58085776 903.0603673 -481.04337534 900.80307665 -487.0625 898.9375 C-487.80693359 898.69451172 -488.55136719 898.45152344 -489.31835938 898.20117188 C-503.2118543 893.83265846 -516.80301482 892.45356342 -531.25 891.875 C-533.75773763 891.76651298 -536.26525917 891.65471726 -538.77264404 891.5383606 C-540.31607729 891.46752824 -541.85974548 891.40159337 -543.40362549 891.34127808 C-546.49538125 891.20600308 -549.04599191 890.98466936 -552 890 C-536.35304174 855.35688594 -474.19537563 829.61005024 -442 816 C-443.30953889 812.18647678 -444.62279855 808.37424645 -445.9375 804.5625 C-446.33702881 803.40355225 -446.73655762 802.24460449 -447.14819336 801.05053711 C-450.41556089 791.60828519 -453.79003004 782.20751546 -457.25561523 772.83618164 C-457.61598877 771.84996826 -457.9763623 770.86375488 -458.34765625 769.84765625 C-458.82730835 768.5484021 -458.82730835 768.5484021 -459.31665039 767.22290039 C-460 765 -460 765 -460 762 C-456.37 761.01 -452.74 760.02 -449 759 C-449.81339844 758.00226562 -450.62679687 757.00453125 -451.46484375 755.9765625 C-508.9656956 684.34955735 -543.32491929 593.06418417 -552.1875 462.75 C-552.18656342 461.88016479 -552.18562683 461.01032959 -552.18466187 460.11413574 C-552.09786078 422.59725218 -547.88425978 385.47451931 -539 349 C-538.60989746 347.39801758 -538.60989746 347.39801758 -538.21191406 345.76367188 C-527.02170471 300.64672007 -509.58757758 256.54857372 -485 217 C-484.54447754 216.25524414 -484.08895508 215.51048828 -483.61962891 214.74316406 C-469.95499528 192.40469976 -454.27915346 171.65511131 -437 152 C-436.20980469 151.09636719 -435.41960937 150.19273437 -434.60546875 149.26171875 C-428.09339554 141.99218307 -421.20104123 135.09695469 -414.3125 128.1875 C-413.81495209 127.68727325 -413.31740417 127.18704651 -412.80477905 126.67166138 C-407.05172593 120.89514817 -401.23844775 115.2543316 -395 110 C-394.0577356 109.19767944 -394.0577356 109.19767944 -393.09643555 108.37915039 C-322.69694486 48.76373158 -235.72891864 13.02149727 -136 0 C-135.3269281 -0.0835675 -134.6538562 -0.16713501 -133.96038818 -0.25323486 C-90.45360791 -5.6058624 -43.438903 -5.8805742 0 0 Z " fill="#FED500" transform="translate(579,4)"/>
<path d="M0 0 C44.8225824 10.0788209 86.87942036 32.14134582 120.3828125 63.5703125 C122.48061379 65.51782355 124.60309773 67.37088035 126.8125 69.1875 C129.91318363 71.81000592 132.51356467 74.73385012 135.13671875 77.828125 C137.09539486 80.11119401 139.13760008 82.29866603 141.1875 84.5 C164.05608488 109.96552587 180.48129456 140.96260667 192 173 C192.25185059 173.68143066 192.50370117 174.36286133 192.76318359 175.06494141 C197.19093513 187.07502048 200.11301558 199.54725266 203 212 C203.16773926 212.72268066 203.33547852 213.44536133 203.50830078 214.18994141 C204.53846921 218.76472545 205.31712024 223.36308946 206 228 C206.20302734 229.31629395 206.20302734 229.31629395 206.41015625 230.65917969 C212.48740285 271.68059421 210.55344294 314.72103239 201 355 C200.73485596 356.14130371 200.73485596 356.14130371 200.46435547 357.30566406 C199.39316833 361.89407272 198.22420852 366.44955048 197 371 C196.66742187 372.26714844 196.33484375 373.53429687 195.9921875 374.83984375 C184.72724521 416.26658011 163.98888222 454.78938169 137 488 C136.31268799 489.06355713 135.62537598 490.12711426 134.91723633 491.22290039 C133.29900199 493.14791396 132.51741159 493.91332231 130.01324463 494.33282471 C127.56967542 494.22044381 125.23099859 493.91161616 122.81640625 493.51953125 C121.48712852 493.34403496 121.48712852 493.34403496 120.1309967 493.16499329 C118.29926627 492.92052249 116.46931685 492.66232883 114.64141846 492.39068604 C111.51988536 491.92898737 108.39254946 491.54017742 105.26077271 491.15567017 C103.04057159 490.88061453 100.82248137 490.59213587 98.60449219 490.29980469 C78.26248744 487.6249018 57.883527 485.52699199 37.45678711 483.61206055 C35.85784859 483.46087013 35.85784859 483.46087013 34.22660828 483.30662537 C32.22046501 483.11745116 30.2140559 482.93106807 28.20735168 482.74794006 C27.31424789 482.66386398 26.4211441 482.5797879 25.50097656 482.49316406 C24.33625824 482.38587982 24.33625824 482.38587982 23.14801025 482.27642822 C21 482 21 482 17 481 C17 497.17 17 513.34 17 530 C7.76 530 -1.48 530 -11 530 C-11.02578125 526.71417969 -11.0515625 523.42835938 -11.078125 520.04296875 C-11.1165215 516.86571631 -11.16168953 513.68862748 -11.20751953 510.51147461 C-11.23577019 508.30094189 -11.25696425 506.09030738 -11.27099609 503.87963867 C-11.29236869 500.70438366 -11.33899031 497.5303578 -11.390625 494.35546875 C-11.39185364 493.36475876 -11.39308228 492.37404877 -11.39434814 491.35331726 C-11.41406677 490.43258926 -11.4337854 489.51186127 -11.45410156 488.56323242 C-11.46298401 487.7527092 -11.47186646 486.94218597 -11.48101807 486.10710144 C-11.84089481 483.84265495 -11.84089481 483.84265495 -13.81536865 482.24214172 C-17.0387507 480.40938521 -19.36219718 480.54527465 -23 481 C-25.36497439 482.86708505 -26.66030715 484.32061431 -28 487 C-28.11726659 488.38817673 -28.17681406 489.78148714 -28.20532227 491.17431641 C-28.22526749 492.03505768 -28.24521271 492.89579895 -28.26576233 493.78262329 C-28.28247482 494.71287323 -28.29918732 495.64312317 -28.31640625 496.6015625 C-28.33718735 497.55316254 -28.35796844 498.50476257 -28.37937927 499.48519897 C-28.44488133 502.53172432 -28.5037628 505.57833743 -28.5625 508.625 C-28.60568459 510.68750916 -28.64929886 512.75000937 -28.69335938 514.8125 C-28.80137379 519.87491127 -28.90044234 524.93738701 -29 530 C-38.24 530 -47.48 530 -57 530 C-57 511.85 -57 493.7 -57 475 C-58.98 475 -60.96 475 -63 475 C-63 477.31 -63 479.62 -63 482 C-79.17 482 -95.34 482 -112 482 C-109.12000932 486.79998447 -107.16979751 489.19590556 -102 491 C-95.85610147 491.91396838 -90.69794944 490.92073547 -85.0078125 488.55859375 C-82.53451227 487.8704966 -81.41606351 488.16924889 -79 489 C-77.26074219 490.30688477 -77.26074219 490.30688477 -75.546875 491.94140625 C-74.928125 492.52470703 -74.309375 493.10800781 -73.671875 493.70898438 C-73.03765625 494.32064453 -72.4034375 494.93230469 -71.75 495.5625 C-71.1003125 496.17802734 -70.450625 496.79355469 -69.78125 497.42773438 C-68.18119713 498.94543158 -66.58786356 500.46957115 -65 502 C-67.74340348 507.79548601 -72.05622749 509.75564199 -77.85546875 512.20703125 C-89.46422389 516.28812156 -101.67562699 516.80614308 -113.25 512.32421875 C-124.42527984 506.94294053 -130.89321429 499.81038576 -135.23828125 488.296875 C-136.56540435 484.29508841 -137.11825589 480.98744756 -137.0625 476.75 C-137.05347656 475.85796875 -137.04445313 474.9659375 -137.03515625 474.046875 C-137.01775391 473.03367187 -137.01775391 473.03367187 -137 472 C-138.98 472 -140.96 472 -143 472 C-143 474.97 -143 477.94 -143 481 C-146.63 481 -150.26 481 -154 481 C-153.85988962 484.81279106 -153.71319562 488.62512562 -153.5625 492.4375 C-153.52318359 493.52611328 -153.48386719 494.61472656 -153.44335938 495.73632812 C-153.40146484 496.77080078 -153.35957031 497.80527344 -153.31640625 498.87109375 C-153.27974854 499.82943115 -153.24309082 500.78776855 -153.20532227 501.77514648 C-153.24165576 503.97138925 -153.24165576 503.97138925 -152 505 C-149.98405418 505.23427778 -147.961526 505.41336124 -145.9375 505.5625 C-143.978125 505.706875 -142.01875 505.85125 -140 506 C-140 513.59 -140 521.18 -140 529 C-145.383125 529.12375 -145.383125 529.12375 -150.875 529.25 C-151.98472168 529.28641602 -153.09444336 529.32283203 -154.23779297 529.36035156 C-161.76850925 529.44312136 -168.82447557 528.39091426 -174.8371582 523.50805664 C-182.63715729 515.24398438 -182.40246776 505.21344774 -182.1875 494.4375 C-182.17396484 493.14263672 -182.16042969 491.84777344 -182.14648438 490.51367188 C-182.1113737 487.34200786 -182.06219347 484.1712291 -182 481 C-184.31 481 -186.62 481 -189 481 C-189 477.7 -189 474.4 -189 471 C-191.64 471 -194.28 471 -197 471 C-197 474.63 -197 478.26 -197 482 C-200.63 482 -204.26 482 -208 482 C-207.85987863 485.64613696 -207.71318602 489.29179789 -207.5625 492.9375 C-207.50352539 494.49887695 -207.50352539 494.49887695 -207.44335938 496.09179688 C-207.40146484 497.08115234 -207.35957031 498.07050781 -207.31640625 499.08984375 C-207.27974854 500.00628662 -207.24309082 500.92272949 -207.20532227 501.86694336 C-207.22996136 503.9820728 -207.22996136 503.9820728 -206 505 C-203.98405418 505.23427778 -201.961526 505.41336124 -199.9375 505.5625 C-197.978125 505.706875 -196.01875 505.85125 -194 506 C-194 513.92 -194 521.84 -194 530 C-220.42954592 530.39154883 -220.42954592 530.39154883 -229 523 C-236.37033521 514.26409507 -236.28077978 504.40458445 -236.125 493.5 C-236.11597656 492.29601562 -236.10695313 491.09203125 -236.09765625 489.8515625 C-236.07423775 486.9008321 -236.04143993 483.95052311 -236 481 C-238.31 481 -240.62 481 -243 481 C-243 478.03 -243 475.06 -243 472 C-243.71285156 472.0928125 -244.42570312 472.185625 -245.16015625 472.28125 C-252.91710783 472.86589238 -252.91710783 472.86589238 -256.0078125 470.39453125 C-257.14470923 468.98530809 -258.25365684 467.5531522 -259.3359375 466.1015625 C-264.05806525 460.13793638 -271.68550522 457.25612196 -279 456 C-292.52363048 454.84123542 -304.61951203 456.67047012 -315.7890625 464.984375 C-318.81531456 467.74329031 -321.02484171 470.92124492 -323.39453125 474.2421875 C-325 476 -325 476 -328.4375 476.5625 C-329.283125 476.376875 -330.12875 476.19125 -331 476 C-331.061875 476.66 -331.12375 477.32 -331.1875 478 C-333.06132658 484.91874431 -337.23860413 489.90300738 -343 494 C-343.66 494 -344.32 494 -345 494 C-341.23693212 501.9391554 -337.03475843 509.50638976 -332.51611328 517.03491211 C-332.10474121 517.72206299 -331.69336914 518.40921387 -331.26953125 519.1171875 C-330.90448486 519.72159668 -330.53943848 520.32600586 -330.16333008 520.94873047 C-328.66999205 523.5818944 -327.33734434 526.28492414 -326 529 C-352.69763316 531.52276381 -352.69763316 531.52276381 -359.32080078 527.63916016 C-362.75739957 524.07694157 -364.4808269 519.78105209 -366.13916016 515.17724609 C-367.51270825 511.70325236 -369.56514764 508.72391264 -371.625 505.625 C-375 500.24901186 -375 500.24901186 -375 498 C-376.98 498 -378.96 498 -381 498 C-381 508.23 -381 518.46 -381 529 C-390.24 529 -399.48 529 -409 529 C-409 513.82 -409 498.64 -409 483 C-426.86748914 484.80575688 -444.61751787 486.97220373 -462.39239502 489.50953674 C-468.80418261 490.42278825 -475.21804362 491.31800517 -481.640625 492.15234375 C-483.51282715 492.39778931 -483.51282715 492.39778931 -485.42285156 492.64819336 C-495.16064919 493.60588967 -495.16064919 493.60588967 -497.99511719 491.55981445 C-498.50719727 490.8968335 -499.01927734 490.23385254 -499.546875 489.55078125 C-500.4140918 488.44984131 -500.4140918 488.44984131 -501.29882812 487.32666016 C-501.86021484 486.5588623 -502.42160156 485.79106445 -503 485 C-503.52529297 484.29536621 -504.05058594 483.59073242 -504.59179688 482.86474609 C-506.18755091 480.66580508 -507.72658916 478.43712207 -509.25 476.1875 C-510.08797119 474.95253784 -510.08797119 474.95253784 -510.94287109 473.69262695 C-541.6927178 427.82083436 -559.58307822 374.67217358 -566 320 C-566.11859375 319.00742187 -566.2371875 318.01484375 -566.359375 316.9921875 C-570.33539354 282.24935883 -569.55359983 245.15461522 -560.57275391 211.20263672 C-559.92113575 208.69671216 -559.32606101 206.17996966 -558.73046875 203.66015625 C-545.23180295 147.80048304 -512.90069957 95.15141057 -467 60 C-465.83454748 59.08214289 -464.66918883 58.16416659 -463.50390625 57.24609375 C-439.70125084 38.72407886 -413.05476782 24.85632344 -385 14 C-383.41348633 13.38487549 -383.41348633 13.38487549 -381.79492188 12.75732422 C-378.66447221 11.56035963 -375.52372063 10.39794481 -372.375 9.25 C-371.42125488 8.89010986 -370.46750977 8.53021973 -369.48486328 8.15942383 C-362.93697494 5.85003443 -362.93697494 5.85003443 -359.046875 6.47265625 C-358.04140625 6.97667969 -357.0359375 7.48070312 -356 8 C-354.28986151 8.78689504 -352.57881623 9.57182052 -350.8671875 10.35546875 C-349.90619141 10.80986328 -348.94519531 11.26425781 -347.95507812 11.73242188 C-322.4577251 23.77777888 -292.13089436 35.84571966 -263.61328125 26.97265625 C-262.75089844 26.65167969 -261.88851563 26.33070313 -261 26 C-260.02417969 25.64808594 -259.04835938 25.29617188 -258.04296875 24.93359375 C-249.84715495 21.74574833 -241.76572344 17.67497688 -234.78125 12.2890625 C-233 11 -233 11 -231 11 C-228.29399597 16.42636351 -227.4815152 20.71277578 -227.5625 26.75 C-227.57385986 27.9402478 -227.57385986 27.9402478 -227.58544922 29.15454102 C-227.76882774 35.72337378 -229.03168432 41.10024212 -232 47 C-232.43570312 47.886875 -232.87140625 48.77375 -233.3203125 49.6875 C-237.01702286 56.79811227 -241.46405215 63.40330427 -246 70 C-207.5301707 69.39084676 -207.5301707 69.39084676 -175.1875 50.4375 C-166.2908872 39.75512948 -162.46397615 27.18545762 -159 14 C-157.91203125 14.54269531 -156.8240625 15.08539063 -155.703125 15.64453125 C-126.39896305 30.0320375 -99.06062201 25.17562778 -68.89331055 14.93579102 C-60.63295062 12.13357705 -52.3292109 9.57113773 -43.9375 7.1875 C-42.89102295 6.88545654 -41.8445459 6.58341309 -40.76635742 6.2722168 C-30.3281173 3.35011085 -20.75229273 2.85637345 -9.9375 2.9375 C-8.78572266 2.94201172 -7.63394531 2.94652344 -6.44726562 2.95117188 C-3.63145482 2.96285574 -0.81575602 2.97923719 2 3 C1.34 2.01 0.68 1.02 0 0 Z " fill="#F93008" transform="translate(692,260)"/>
<path d="M0 0 C3.84171101 2.73628084 7.12110946 5.65746964 10.25 9.1875 C10.25 9.8475 10.25 10.5075 10.25 11.1875 C13.88 11.1875 17.51 11.1875 21.25 11.1875 C21.25 14.1575 21.25 17.1275 21.25 20.1875 C23.56 20.1875 25.87 20.1875 28.25 20.1875 C28.26981934 20.93322266 28.28963867 21.67894531 28.31005859 22.44726562 C28.40594411 25.86100188 28.51536441 29.27417879 28.625 32.6875 C28.67140625 34.44707031 28.67140625 34.44707031 28.71875 36.2421875 C29.03537379 45.63536004 29.57498712 54.93945817 36.25 62.1875 C44.23847899 67.575389 52.26590117 68.29422739 61.625 68.75 C64.47125 68.894375 67.3175 69.03875 70.25 69.1875 C70.25 61.2675 70.25 53.3475 70.25 45.1875 C66.29 45.1875 62.33 45.1875 58.25 45.1875 C56.25 43.1875 56.25 43.1875 56.02294922 40.94091797 C56.03342285 40.02971191 56.04389648 39.11850586 56.0546875 38.1796875 C56.06113281 37.19355469 56.06757813 36.20742188 56.07421875 35.19140625 C56.09097656 34.15886719 56.10773438 33.12632812 56.125 32.0625 C56.13402344 31.02222656 56.14304687 29.98195313 56.15234375 28.91015625 C56.17596133 26.33584003 56.21183316 23.76164162 56.25 21.1875 C59.88 21.1875 63.51 21.1875 67.25 21.1875 C67.25 17.5575 67.25 13.9275 67.25 10.1875 C69.89 10.1875 72.53 10.1875 75.25 10.1875 C75.25 13.4875 75.25 16.7875 75.25 20.1875 C77.56 20.1875 79.87 20.1875 82.25 20.1875 C82.2593457 20.98333496 82.26869141 21.77916992 82.27832031 22.59912109 C82.33246928 26.25417651 82.41603076 29.90801284 82.5 33.5625 C82.51417969 34.81417969 82.52835937 36.06585937 82.54296875 37.35546875 C82.78045198 46.42732831 84.42544479 53.19021 88.875 61.0625 C95.7669992 67.2290256 104.52244767 67.81153076 113.375 67.9375 C116.96375 68.02 120.5525 68.1025 124.25 68.1875 C124.25 60.5975 124.25 53.0075 124.25 45.1875 C122.31125 45.22875 120.3725 45.27 118.375 45.3125 C115.0703125 45.3828125 115.0703125 45.3828125 112.25 45.1875 C110.25 43.1875 110.25 43.1875 110.02294922 40.84912109 C110.03342285 39.89602051 110.04389648 38.94291992 110.0546875 37.9609375 C110.06113281 36.9296875 110.06757812 35.8984375 110.07421875 34.8359375 C110.09097656 33.75570312 110.10773438 32.67546875 110.125 31.5625 C110.13402344 30.47453125 110.14304687 29.3865625 110.15234375 28.265625 C110.17596482 25.57282351 110.21183667 22.88013465 110.25 20.1875 C113.88 20.1875 117.51 20.1875 121.25 20.1875 C121.25 17.2175 121.25 14.2475 121.25 11.1875 C123.23 11.1875 125.21 11.1875 127.25 11.1875 C127.33636719 12.05890625 127.42273438 12.9303125 127.51171875 13.828125 C128.82878056 24.99294252 131.31758089 36.56464781 140.25 44.1875 C151.26831023 52.2459522 162.8132832 54.6184145 176.25 53.1875 C184.67286076 51.57052998 191.48731558 48.42989102 198.25 43.1875 C196.63645832 39.03980698 193.62712952 36.3409312 190.4375 33.375 C189.91607422 32.86001953 189.39464844 32.34503906 188.85742188 31.81445312 C187.12793531 30.13764046 187.12793531 30.13764046 184.25 28.1875 C181.56816289 28.15255455 181.56816289 28.15255455 179.25 29.1875 C172.88832197 31.30805934 166.33088231 32.83071717 159.90234375 30.2421875 C155.2581386 27.56186583 154.37893472 26.50983679 152.25 21.1875 C168.42 21.1875 184.59 21.1875 201.25 21.1875 C201.25 18.8775 201.25 16.5675 201.25 14.1875 C203.23 14.1875 205.21 14.1875 207.25 14.1875 C207.25 32.3375 207.25 50.4875 207.25 69.1875 C216.49 69.1875 225.73 69.1875 235.25 69.1875 C235.20359375 66.15304687 235.1571875 63.11859375 235.109375 59.9921875 C235.0781527 57.04331127 235.05388011 54.09445368 235.03027344 51.14550781 C235.0101958 49.1008272 234.98292775 47.05620373 234.94824219 45.01171875 C234.89955481 42.06756463 234.87699256 39.12417166 234.859375 36.1796875 C234.83872986 35.2700827 234.81808472 34.36047791 234.79681396 33.42330933 C234.79480492 27.7016298 235.47832024 24.56499815 239.25 20.1875 C242.35048928 18.63725536 244.82894218 18.89757985 248.25 19.1875 C250.94995117 20.55371094 250.94995117 20.55371094 253.25 23.1875 C253.9539225 26.67348831 253.83106884 30.09706258 253.73828125 33.640625 C253.73120651 34.65598328 253.72413177 35.67134155 253.71684265 36.71746826 C253.68886958 39.95823053 253.62612355 43.1972606 253.5625 46.4375 C253.53742099 48.6353917 253.51460714 50.83331051 253.49414062 53.03125 C253.44328508 58.41786964 253.34543458 63.80074795 253.25 69.1875 C262.49 69.1875 271.73 69.1875 281.25 69.1875 C281.25 53.0175 281.25 36.8475 281.25 20.1875 C298.64170931 21.51371997 315.97319854 23.11545609 333.3125 25 C335.13491211 25.19699997 335.13491211 25.19699997 336.99414062 25.39797974 C369.07522785 28.87177305 401.01539032 32.92904511 432.93554688 37.65625 C449.01687052 40.03469113 465.11504669 42.20465487 481.25 44.1875 C480.57689225 49.94803616 478.62949512 55.09927446 476.65234375 60.51171875 C476.29862198 61.49493607 475.94490021 62.47815338 475.58045959 63.49116516 C474.45430586 66.62087899 473.32166092 69.74817967 472.1875 72.875 C470.69117749 77.00196931 469.20117719 81.13114303 467.71484375 85.26171875 C467.36800034 86.21173264 467.02115692 87.16174652 466.6638031 88.14054871 C466.34669876 89.0218898 466.02959442 89.9032309 465.70288086 90.8112793 C465.28104774 91.97327095 465.28104774 91.97327095 464.85069275 93.15873718 C464.10804755 95.31428892 464.10804755 95.31428892 464.25 98.1875 C464.81581787 98.45264404 465.38163574 98.71778809 465.96459961 98.9909668 C493.94645166 112.14257738 522.06305296 125.64249229 546.25 145.1875 C547.27738281 146.0125 548.30476562 146.8375 549.36328125 147.6875 C555.55350439 152.74799811 561.38215296 158.12389615 567.0625 163.75 C567.98844971 164.662052 567.98844971 164.662052 568.93310547 165.5925293 C573.25 169.94083062 573.25 169.94083062 573.25 172.1875 C568.08842122 173.07441917 563.04561873 173.34079519 557.81298828 173.47729492 C534.30161016 174.10568143 512.89465302 177.72839714 491.25 187.1875 C491.394375 188.08082031 491.53875 188.97414063 491.6875 189.89453125 C496.94176786 226.47824694 493.04988732 265.94576242 482.25 301.1875 C481.59 301.1875 480.93 301.1875 480.25 301.1875 C478.98046875 299.89453125 478.98046875 299.89453125 477.4375 298 C445.58170663 260.74715073 402.6874847 241.06658202 354.25 237.1875 C354.90245798 230.09388554 355.90483201 223.18237357 357.25 216.1875 C356.58274902 216.1472168 355.91549805 216.10693359 355.22802734 216.06542969 C344.83877186 215.35588675 334.52944764 214.07369632 324.19293213 212.83340454 C291.30462127 208.90908327 258.34959525 205.71000271 225.31640625 203.28125 C224.49913559 203.22062378 223.68186493 203.15999756 222.83982849 203.09753418 C179.50021162 200.00123374 136.13202556 198.8419801 92.69042969 198.92675781 C86.79824202 198.93816435 80.90623493 198.93134481 75.01405334 198.91987991 C44.04452547 198.86883771 13.17698943 199.55485945 -17.75 201.1875 C-18.492855 201.22637833 -19.23570999 201.26525665 -20.00107574 201.30531311 C-28.83977677 201.77088243 -37.67058181 202.32178642 -46.5 202.9375 C-47.69364166 203.01920441 -48.88728333 203.10090881 -50.11709595 203.18508911 C-88.49877733 205.83560818 -126.83093511 209.62180806 -164.9675293 214.71459961 C-165.72572968 214.8147084 -166.48393005 214.9148172 -167.2651062 215.01795959 C-169.25585976 215.28213842 -171.24577155 215.55264004 -173.2355957 215.82373047 C-176.75 216.1875 -176.75 216.1875 -183.75 216.1875 C-182.76 227.0775 -182.76 227.0775 -181.75 238.1875 C-183.32265625 238.34605469 -184.8953125 238.50460937 -186.515625 238.66796875 C-234.296147 243.75579644 -274.57121884 264.36872363 -306.75 300.1875 C-307.08 300.8475 -307.41 301.5075 -307.75 302.1875 C-308.74 301.8575 -309.73 301.5275 -310.75 301.1875 C-311.57788086 299.05566406 -311.57788086 299.05566406 -312.21484375 296.203125 C-312.4557373 295.13892334 -312.69663086 294.07472168 -312.94482422 292.97827148 C-313.31244873 291.2255896 -313.31244873 291.2255896 -313.6875 289.4375 C-313.94547363 288.21812744 -314.20344727 286.99875488 -314.46923828 285.74243164 C-315.26000764 281.8961039 -316.01346814 278.04456218 -316.75 274.1875 C-316.96897949 273.05103027 -317.18795898 271.91456055 -317.41357422 270.74365234 C-320.33852161 254.89495173 -321.11551641 239.32309729 -321.125 223.25 C-321.12699402 222.35417206 -321.12898804 221.45834412 -321.13104248 220.53536987 C-321.12835536 209.90231554 -320.63825522 199.67720319 -318.75 189.1875 C-324.33085776 186.2478673 -329.79337534 183.99057665 -335.8125 182.125 C-336.92915039 181.76051758 -336.92915039 181.76051758 -338.06835938 181.38867188 C-351.9618543 177.02015846 -365.55301482 175.64106342 -380 175.0625 C-382.50773763 174.95401298 -385.01525917 174.84221726 -387.52264404 174.7258606 C-389.06607729 174.65502824 -390.60974548 174.58909337 -392.15362549 174.52877808 C-395.24538125 174.39350308 -397.79599191 174.17216936 -400.75 173.1875 C-385.10304174 138.54438594 -322.94537563 112.79755024 -290.75 99.1875 C-292.05953889 95.37397678 -293.37279855 91.56174645 -294.6875 87.75 C-295.08702881 86.59105225 -295.48655762 85.43210449 -295.89819336 84.23803711 C-299.16556089 74.79578519 -302.54003004 65.39501546 -306.00561523 56.02368164 C-306.36598877 55.03746826 -306.7263623 54.05125488 -307.09765625 53.03515625 C-307.41742432 52.16898682 -307.73719238 51.30281738 -308.06665039 50.41040039 C-308.75 48.1875 -308.75 48.1875 -308.75 45.1875 C-302.87130142 43.63372607 -297.0223946 42.48583248 -291.01953125 41.53125 C-290.10725266 41.38345093 -289.19497406 41.23565186 -288.25505066 41.08337402 C-285.35804038 40.61487668 -282.46028712 40.15116528 -279.5625 39.6875 C-277.63732077 39.37660552 -275.7121901 39.0654101 -273.78710938 38.75390625 C-264.11419022 37.19156773 -254.4380307 35.65357056 -244.75 34.1875 C-243.36515256 33.97640257 -241.98030559 33.76530209 -240.59545898 33.55419922 C-220.84727689 30.55284436 -201.08318734 27.75623895 -181.25 25.375 C-179.95928085 25.21769913 -179.95928085 25.21769913 -178.64248657 25.05722046 C-176.14775588 24.75470641 -173.65222727 24.46000173 -171.15625 24.16796875 C-170.10500191 24.04023071 -170.10500191 24.04023071 -169.03251648 23.90991211 C-160.93869586 22.98618553 -152.92304918 22.6682676 -144.75 22.1875 C-144.75 37.3675 -144.75 52.5475 -144.75 68.1875 C-135.51 68.1875 -126.27 68.1875 -116.75 68.1875 C-116.75 57.9575 -116.75 47.7275 -116.75 37.1875 C-114.77 37.1875 -112.79 37.1875 -110.75 37.1875 C-109.22658032 39.44619795 -108.29261631 41.26869757 -107.28125 43.75 C-106.64348471 45.12348088 -105.99716606 46.49301579 -105.34326172 47.85888672 C-105.00421814 48.56978455 -104.66517456 49.28068237 -104.31585693 50.01312256 C-99.43477627 60.61655179 -99.43477627 60.61655179 -90.92663574 68.04626465 C-81.93061035 70.64338689 -71.74401514 68.92225069 -62.75 67.1875 C-64.83073365 63.57592724 -66.91205163 59.96469205 -68.99389648 56.35375977 C-69.70108596 55.12696294 -70.40811957 53.90007625 -71.11499023 52.6730957 C-72.13483736 50.90291709 -73.15525657 49.13306931 -74.17578125 47.36328125 C-74.78848877 46.30020752 -75.40119629 45.23713379 -76.0324707 44.1418457 C-77.14115238 42.23478715 -78.28606457 40.34812875 -79.47338867 38.48901367 C-80.75 36.1875 -80.75 36.1875 -80.75 33.1875 C-79.2109375 32.00390625 -79.2109375 32.00390625 -77.125 30.75 C-73.15598117 27.99470573 -71.63052275 25.334313 -69.6875 20.9375 C-68.24609375 17.75 -68.24609375 17.75 -66.75 15.1875 C-63.25 13.9375 -63.25 13.9375 -59.75 13.1875 C-58.25079996 11.55373782 -58.25079996 11.55373782 -56.9375 9.5 C-44.82491316 -8.06325092 -17.34926855 -10.96197565 0 0 Z " fill="#02912B" transform="translate(427.75,720.8125)"/>
<path d="M0 0 C1.37072504 0.17904191 2.7414947 0.35774248 4.11230469 0.53613281 C51.30802103 6.7573786 97.40061175 18.79208927 141 38 C141.9271582 38.40186523 142.85431641 38.80373047 143.80957031 39.21777344 C184.19116589 56.74612605 221.795704 80.7495471 255.14453125 109.44799805 C256.50757175 110.58810968 257.89405858 111.70033954 259.29296875 112.79614258 C267.32588761 119.1433157 274.49134439 126.21937343 281.68994141 133.48413086 C283.75497324 135.56751744 285.82799396 137.64269165 287.90234375 139.71679688 C289.24266116 141.06202824 290.58252091 142.40771577 291.921875 143.75390625 C292.52932556 144.36246964 293.13677612 144.97103302 293.76263428 145.59803772 C298.02885056 149.91081125 302.04322384 154.4031293 306 159 C306.845625 159.96421875 307.69125 160.9284375 308.5625 161.921875 C375.00108283 239.00766662 414.79587165 339.2189776 419.25 500.1875 C418.89230043 504.46554769 418.4646007 508.73231983 418 513 C417.87641113 514.15338867 417.75282227 515.30677734 417.62548828 516.49511719 C411.62100265 570.48454075 396.13252734 621.93122917 373 671 C372.56333008 671.92989746 372.12666016 672.85979492 371.67675781 673.81787109 C359.01523804 700.55165094 343.08338275 725.91349322 325.57617188 749.73486328 C323.95578963 751.96426012 323.95578963 751.96426012 322.73632812 754.40185547 C321.33485043 756.85231475 320.31358237 758.36733819 318 760 C313.24197323 760.54243596 308.82264939 759.79762172 304.125 759 C302.23394531 758.73123047 302.23394531 758.73123047 300.3046875 758.45703125 C297.19532467 758.00947145 294.09743001 757.52290152 291 757 C297.08653719 747.70091476 297.08653719 747.70091476 300.625 743.5 C306.47935369 736.281848 311.72155168 728.64286747 317 721 C317.54962402 720.21222168 318.09924805 719.42444336 318.66552734 718.61279297 C343.79252193 682.49409951 361.72631006 642.47799989 376 601 C376.28327148 600.18821289 376.56654297 599.37642578 376.85839844 598.54003906 C384.63058954 576.08811001 389.33921009 552.65002924 392.63037109 529.15942383 C393 527 393 527 394 524 C396.61406736 505.43123366 396.34251129 486.66784199 396.31567383 467.96118164 C396.31104057 464.45063471 396.31798448 460.94043407 396.33618164 457.42993164 C396.47707848 429.9986027 394.68670811 403.91155054 389 377 C388.77940918 375.93990723 388.55881836 374.87981445 388.33154297 373.78759766 C385.40211104 359.79679183 382.16583286 346.00205683 377.77099609 332.39501953 C376.99216569 329.97566351 376.23969933 327.54908628 375.48828125 325.12109375 C364.7978088 291.20067452 349.25945472 257.91740758 330 228 C329.52143555 227.25186035 329.04287109 226.5037207 328.54980469 225.73291016 C318.50477718 210.11587439 307.70463438 194.94615371 295.51953125 180.921875 C293.06963657 178.08075683 290.71786655 175.17959478 288.375 172.25 C284.93058122 168.01213475 281.28232378 164.13578461 277.3359375 160.36328125 C275.36014586 158.36436162 273.54209003 156.32705682 271.71484375 154.1953125 C268.11008129 150.04076101 264.22964705 146.28697286 260.1875 142.5625 C259.48608887 141.91144287 258.78467773 141.26038574 258.06201172 140.58959961 C256.04569237 138.72161413 254.02378379 136.85989134 252 135 C251.03964844 134.113125 250.07929687 133.22625 249.08984375 132.3125 C243.58254804 127.28523799 237.88138794 122.58145853 232 118 C230.8463482 117.08073665 229.69270282 116.16146525 228.5390625 115.2421875 C209.27381434 100.04998206 188.56504067 86.67412448 167 75 C165.67234619 74.27055176 165.67234619 74.27055176 164.31787109 73.52636719 C121.46333319 50.051324 74.11230204 34.22176558 26 26 C24.75395996 25.78214844 23.50791992 25.56429688 22.22412109 25.33984375 C18.90593589 24.76283974 15.58662423 24.19542702 12.26483154 23.63973999 C10.41629215 23.32989712 8.56870975 23.01436047 6.72119141 22.69848633 C-16.56035087 18.92220694 -39.80361935 18.62396244 -63.32885742 18.62939453 C-66.96512921 18.62955628 -70.60089286 18.61576537 -74.23706055 18.58837891 C-107.86182326 18.33921071 -139.96425855 21.43623293 -173 28 C-174.16756836 28.22945312 -175.33513672 28.45890625 -176.53808594 28.6953125 C-210.98852226 35.53840053 -244.40205244 46.01666293 -276.30957031 60.75976562 C-278.7061215 61.86452788 -281.11155746 62.94488492 -283.5234375 64.015625 C-322.73823502 81.64412676 -358.39949289 107.05260893 -390 136 C-390.52126465 136.47614746 -391.0425293 136.95229492 -391.57958984 137.44287109 C-399.78713107 144.94520704 -407.8707821 152.41537564 -415.1328125 160.85546875 C-417.13153645 163.15107429 -419.18945229 165.384796 -421.25 167.625 C-426.83341199 173.82983727 -431.94489374 180.36537389 -437 187 C-437.53786133 187.7027002 -438.07572266 188.40540039 -438.62988281 189.12939453 C-497.25556964 266.0607912 -528.58899499 359.97526482 -528.26074219 456.50463867 C-528.24933703 459.88789581 -528.25615364 463.2708386 -528.2676115 466.65408516 C-528.33022776 488.40372623 -527.71892728 510.07492762 -523.6875 531.5 C-523.35939331 533.30670166 -523.35939331 533.30670166 -523.0246582 535.14990234 C-522.57619832 537.59818136 -522.12151876 540.04533052 -521.66015625 542.49121094 C-521.03645701 545.80622776 -520.4383157 549.12497062 -519.84375 552.4453125 C-516.98446843 567.98228749 -512.75753588 582.94654084 -508 598 C-507.69223633 598.99821777 -507.38447266 599.99643555 -507.06738281 601.02490234 C-491.0840656 652.76765197 -464.87975768 701.47075251 -430.9296875 743.6015625 C-428.93804249 746.07700791 -426.96258271 748.56395092 -425 751.0625 C-424.4225 751.79597656 -423.845 752.52945313 -423.25 753.28515625 C-422 755 -422 755 -422 756 C-425.74760669 756.70100082 -429.49836085 757.38343987 -433.25 758.0625 C-434.31347656 758.26166016 -435.37695312 758.46082031 -436.47265625 758.66601562 C-438.00986328 758.94155273 -438.00986328 758.94155273 -439.578125 759.22265625 C-440.52075195 759.39547119 -441.46337891 759.56828613 -442.43457031 759.74633789 C-445.03096427 760.00306166 -446.59113329 759.97377677 -449 759 C-450.46948242 757.64672852 -450.46948242 757.64672852 -451.85546875 755.87890625 C-452.38664307 755.2044043 -452.91781738 754.52990234 -453.46508789 753.83496094 C-454.03348389 753.08504883 -454.60187988 752.33513672 -455.1875 751.5625 C-455.79263428 750.77262695 -456.39776855 749.98275391 -457.02124023 749.16894531 C-512.5841103 675.3671278 -545.22341089 585.265937 -552.1875 462.75 C-552.18656342 461.88016479 -552.18562683 461.01032959 -552.18466187 460.11413574 C-552.09786078 422.59725218 -547.88425978 385.47451931 -539 349 C-538.60989746 347.39801758 -538.60989746 347.39801758 -538.21191406 345.76367188 C-527.02170471 300.64672007 -509.58757758 256.54857372 -485 217 C-484.54447754 216.25524414 -484.08895508 215.51048828 -483.61962891 214.74316406 C-469.95499528 192.40469976 -454.27915346 171.65511131 -437 152 C-436.20980469 151.09636719 -435.41960937 150.19273437 -434.60546875 149.26171875 C-428.09339554 141.99218307 -421.20104123 135.09695469 -414.3125 128.1875 C-413.81495209 127.68727325 -413.31740417 127.18704651 -412.80477905 126.67166138 C-407.05172593 120.89514817 -401.23844775 115.2543316 -395 110 C-394.0577356 109.19767944 -394.0577356 109.19767944 -393.09643555 108.37915039 C-322.69694486 48.76373158 -235.72891864 13.02149727 -136 0 C-135.3269281 -0.0835675 -134.6538562 -0.16713501 -133.96038818 -0.25323486 C-90.45360791 -5.6058624 -43.438903 -5.8805742 0 0 Z " fill="#FA6D0D" transform="translate(579,4)"/>
<path d="M0 0 C2.76749358 8.05987578 5.24508736 16.1578913 7.5 24.375 C8.10499184 26.56523595 8.71045755 28.75534108 9.31640625 30.9453125 C9.74783936 32.50620605 9.74783936 32.50620605 10.18798828 34.09863281 C10.88540375 36.59054064 11.60235735 39.07441327 12.33984375 41.5546875 C12.70207031 42.77414063 13.06429687 43.99359375 13.4375 45.25 C13.74558594 46.26578125 14.05367187 47.2815625 14.37109375 48.328125 C14.99698248 50.98718025 15.12410581 53.27960071 15 56 C15.639375 55.34 16.27875 54.68 16.9375 54 C31.80102201 39.26138153 50.41908523 26.76726672 72.0625 26.5 C90.00062545 26.74325071 103.86885988 35.60676735 116 48 C119 51.59745763 119 51.59745763 119 54 C117.87722656 54.21914062 116.75445313 54.43828125 115.59765625 54.6640625 C105.19626008 56.81727694 95.9073064 59.23691674 89.0625 68.078125 C86.66423173 72.41616907 85.37319513 77.25902463 84 82 C84.56022354 81.83799606 85.12044708 81.67599213 85.69764709 81.50907898 C88.1489273 80.96707031 90.32839319 80.8661209 92.83764648 80.85473633 C94.27580971 80.84516655 94.27580971 80.84516655 95.74302673 80.83540344 C96.77528885 80.83429062 97.80755096 80.8331778 98.87109375 80.83203125 C99.94440445 80.82870285 101.01771515 80.82537445 102.12355042 80.82194519 C104.39901298 80.81688148 106.67448298 80.81453669 108.94995117 80.81469727 C112.39319537 80.81252791 115.83611008 80.79441376 119.27929688 80.77539062 C140.64166919 80.72040232 140.64166919 80.72040232 151 83 C152.00683838 83.21221191 153.01367676 83.42442383 154.05102539 83.64306641 C174.07711148 88.04452074 191.81975275 97.02470884 205 113 C204.28046143 112.98952637 203.56092285 112.97905273 202.81958008 112.96826172 C177.84480468 112.65240368 156.76647842 116.4577199 133.3125 125.125 C123.76242546 128.637564 113.94502575 130.90421668 104 133 C102.82695313 133.24878906 101.65390625 133.49757813 100.4453125 133.75390625 C79.94813907 137.48303577 61.87885157 134.73334091 44 124 C43.81937012 124.58378418 43.63874023 125.16756836 43.45263672 125.76904297 C36.58396503 147.74618897 36.58396503 147.74618897 31 155 C30.37867188 155.83402344 29.75734375 156.66804687 29.1171875 157.52734375 C18.38600035 170.69383721 2.22239126 176.48144121 -14.2265625 178.625 C-20.16047806 179.20534504 -26.10674993 179.10717672 -32.0625 179.0625 C-33.21427734 179.05798828 -34.36605469 179.05347656 -35.55273438 179.04882812 C-38.36854518 179.03714426 -41.18424398 179.02076281 -44 179 C-42.45929861 175.84257154 -40.71976023 172.86449716 -38.87695312 169.87231445 C-32.11730608 158.87678841 -26.82312379 149.26538677 -26.8125 136.1875 C-26.80025391 135.40568359 -26.78800781 134.62386719 -26.77539062 133.81835938 C-26.76287424 128.82432178 -27.40077678 124.73445926 -29 120 C-30.02738281 120.66386719 -31.05476562 121.32773437 -32.11328125 122.01171875 C-54.50650723 136.3398061 -75.48164329 142.38392967 -102.1875 137.9375 C-122.62068709 133.37374248 -141.25382007 124.03310413 -160 115 C-160 114.34 -160 113.68 -160 113 C-146.15597575 107.47429429 -132.43637921 102.11667378 -117.96142578 98.49707031 C-114.87718103 97.7154519 -111.81667059 96.84758904 -108.75 96 C-93.98675583 92.10326388 -79.20592941 88.58691164 -64 87 C-81.76956611 78.27858636 -99.54677113 74.77405742 -119.20239258 72.98730469 C-120.30349365 72.88450195 -121.40459473 72.78169922 -122.5390625 72.67578125 C-123.52084473 72.59239502 -124.50262695 72.50900879 -125.51416016 72.4230957 C-128 72 -128 72 -131 70 C-118.73308235 58.09005615 -103.68336295 49.10466378 -87.3125 44.1875 C-86.62373779 43.9802832 -85.93497559 43.77306641 -85.2253418 43.55957031 C-56.75833329 35.51624164 -30.35780321 44.23731711 -5 57 C-5.40202637 56.17089111 -5.80405273 55.34178223 -6.21826172 54.48754883 C-10.50210656 45.65036191 -14.77905548 36.80986527 -19.04998779 27.96643066 C-19.92997284 26.14494925 -20.8108933 24.32391982 -21.69189453 22.50292969 C-23.11124868 19.56642857 -24.52542994 16.62750905 -25.9375 13.6875 C-26.35563965 12.82423096 -26.7737793 11.96096191 -27.20458984 11.0715332 C-27.57922363 10.28866943 -27.95385742 9.50580566 -28.33984375 8.69921875 C-28.66331787 8.02721436 -28.98679199 7.35520996 -29.32006836 6.6628418 C-30 5 -30 5 -30 3 C-26.28158823 2.50130675 -22.56297919 2.00427956 -18.84375 1.51171875 C-16.71793544 1.22870888 -14.59248139 0.94277131 -12.46875 0.64453125 C-8.26208047 0.06861816 -4.2340468 -0.08820931 0 0 Z " fill="#02912B" transform="translate(490,151)"/>
<path d="M0 0 C2.6566361 -0.00228604 5.31291342 -0.02092951 7.96948242 -0.03930664 C27.01406662 -0.10273764 43.10978736 2.66495396 57.44799805 16.14233398 C67.68459183 26.69209316 73.3703438 41.03508155 73.7409668 55.62280273 C73.58731386 62.50924816 72.501365 68.6502479 70.3659668 75.18530273 C70.0875293 76.05928711 69.8090918 76.93327148 69.5222168 77.83374023 C65.94510473 87.85582145 58.95084746 95.96483467 50.3659668 102.18530273 C49.04229333 102.55513707 47.70923132 102.89456348 46.3659668 103.18530273 C53.09350468 115.17242905 59.87439856 127.12581214 66.8034668 138.99780273 C67.36952637 139.96782227 67.93558594 140.9378418 68.51879883 141.93725586 C71.71257984 147.39616318 74.95531142 152.81798365 78.28417969 158.19580078 C79.3659668 160.18530273 79.3659668 160.18530273 79.3659668 162.18530273 C62.2059668 162.18530273 45.0459668 162.18530273 27.3659668 162.18530273 C24.0659668 156.24530273 20.7659668 150.30530273 17.3659668 144.18530273 C14.90129282 139.90455319 12.42961979 135.63182823 9.9284668 131.37280273 C9.33098633 130.3512207 8.73350586 129.32963867 8.11791992 128.27709961 C4.95199943 122.8516085 4.95199943 122.8516085 1.67822266 117.49121094 C0.3659668 115.18530273 0.3659668 115.18530273 0.3659668 113.18530273 C-4.5840332 113.18530273 -9.5340332 113.18530273 -14.6340332 113.18530273 C-14.6340332 129.02530273 -14.6340332 144.86530273 -14.6340332 161.18530273 C-29.1540332 161.18530273 -43.6740332 161.18530273 -58.6340332 161.18530273 C-58.6340332 108.38530273 -58.6340332 55.58530273 -58.6340332 1.18530273 C-13.5431822 -0.00129861 -13.5431822 -0.00129861 0 0 Z " fill="#FEFDFD" transform="translate(356.634033203125,428.814697265625)"/>
<path d="M0 0 C15.18 0 30.36 0 46 0 C46 19.8 46 39.6 46 60 C61.18 60 76.36 60 92 60 C92 40.2 92 20.4 92 0 C107.51 0 123.02 0 139 0 C139 53.79 139 107.58 139 163 C123.49 163 107.98 163 92 163 C92 142.21 92 121.42 92 100 C76.82 100 61.64 100 46 100 C46 121.12 46 142.24 46 164 C30.82 164 15.64 164 0 164 C0 109.88 0 55.76 0 0 Z " fill="#FEFDFC" transform="translate(718,430)"/>
<path d="M0 0 C0 12.54 0 25.08 0 38 C-25.08 38 -50.16 38 -76 38 C-76 45.26 -76 52.52 -76 60 C-52.57 60 -29.14 60 -5 60 C-5 72.54 -5 85.08 -5 98 C-28.43 98 -51.86 98 -76 98 C-76 105.92 -76 113.84 -76 122 C-50.92 122 -25.84 122 0 122 C0 135.2 0 148.4 0 162 C-40.92 162 -81.84 162 -124 162 C-124 108.87 -124 55.74 -124 1 C-37.57142857 -0.14285714 -37.57142857 -0.14285714 0 0 Z " fill="#FEFCFC" transform="translate(568,430)"/>
<path d="M0 0 C10.27138666 8.18915998 10.27138666 8.18915998 12.375 14.5 C6.40878374 21.20804738 0.3271246 27.79560346 -5.83837891 34.32055664 C-8.61209418 37.2713588 -11.29998491 40.17138127 -13.625 43.5 C-17.14982194 41.99050905 -19.44610162 39.90558854 -22.1875 37.25 C-32.20034556 28.11934347 -42.81712497 23.91603228 -56.35546875 24.171875 C-59.98927888 24.69724514 -61.87497209 26.10253977 -64.625 28.5 C-66.18930248 31.62860495 -65.98127284 34.05602925 -65.625 37.5 C-63.47455278 40.01182943 -61.74205634 41.33287548 -58.42529297 41.82910156 C-55.73798553 41.94126926 -53.06456359 41.95062319 -50.375 41.9375 C-28.16705311 42.43300087 -7.51052713 51.13944235 8.0625 67.125 C16.88164349 77.46041728 19.5418455 87.27892377 18.8984375 100.609375 C18.32279669 107.437483 16.31930427 113.30317228 13.375 119.5 C12.97925781 120.36109375 12.58351563 121.2221875 12.17578125 122.109375 C5.72015152 134.89195082 -7.08640193 141.84872835 -20.125 146.6953125 C-42.40060426 153.86527262 -65.63875507 153.51511054 -86.8203125 142.8984375 C-97.50353484 136.91474008 -112.54663487 127.62888798 -116.625 115.5 C-116.17697021 115.05720703 -115.72894043 114.61441406 -115.26733398 114.15820312 C-113.19629904 112.10823317 -111.12939303 110.05414567 -109.0625 108 C-108.35802734 107.30390625 -107.65355469 106.6078125 -106.92773438 105.890625 C-102.82867573 101.81045603 -98.9084468 97.64310682 -95.15258789 93.24414062 C-93.7040761 91.59028602 -92.19770476 90.03526643 -90.625 88.5 C-87.4496845 89.88668841 -86.48576397 90.6795412 -84.25 93.5625 C-81.21175343 97.26900541 -77.68554584 99.69122966 -73.6875 102.25 C-73.10242676 102.62648682 -72.51735352 103.00297363 -71.91455078 103.39086914 C-63.53912507 108.61123259 -54.99987021 111.77307825 -45.0625 111.875 C-43.80308594 111.90335938 -42.54367187 111.93171875 -41.24609375 111.9609375 C-35.93092138 111.28435677 -32.94678476 108.78789285 -29.1875 105.125 C-27.43041882 102.57221788 -27.43041882 102.57221788 -27.25 99.5 C-29.46675021 94.66345409 -33.81029085 93.3595181 -38.625 91.5 C-42.63681319 90.54002319 -46.65928631 90.00767581 -50.75 89.5 C-71.05546016 86.587301 -91.6419374 81.11637759 -105.20703125 64.5703125 C-112.7207495 53.62888593 -114.1351987 41.07447315 -111.8125 28.25 C-111.44026758 26.66095264 -111.0450283 25.07708741 -110.625 23.5 C-110.43035156 22.74074219 -110.23570312 21.98148437 -110.03515625 21.19921875 C-108.28564642 15.20533594 -105.29934619 10.50690908 -101.625 5.5 C-101.00625 4.613125 -100.3875 3.72625 -99.75 2.8125 C-74.93275746 -24.19449924 -27.57421668 -19.90905927 0 0 Z " fill="#FEFDFD" transform="translate(690.625,442.5)"/>
<path d="M0 0 C0.34144043 0.94915283 0.68288086 1.89830566 1.03466797 2.8762207 C2.64656668 7.35553767 4.26036971 11.834167 5.875 16.3125 C6.16900696 17.12799316 6.46301392 17.94348633 6.76593018 18.78369141 C10.58618183 29.37461165 14.44412627 39.94956277 18.375 50.5 C21.42235219 58.68235996 24.38800823 66.8844805 27.2409668 75.13647461 C30.8389736 85.49609001 34.66047215 95.77545272 38.44921875 106.06640625 C39.09383057 107.82041748 39.09383057 107.82041748 39.75146484 109.60986328 C40.57048884 111.83375205 41.39359455 114.05614274 42.22119141 116.27685547 C42.77105713 117.76209717 42.77105713 117.76209717 43.33203125 119.27734375 C43.65534424 120.14480225 43.97865723 121.01226074 44.31176758 121.90600586 C45 124 45 124 45 126 C45.99225586 125.97131836 46.98451172 125.94263672 48.00683594 125.91308594 C52.0943007 126.00205252 55.9018494 126.58008892 59.890625 127.390625 C60.62945923 127.53537766 61.36829346 127.68013031 62.1295166 127.82926941 C64.50434648 128.29636352 66.87715558 128.77293206 69.25 129.25 C70.87653763 129.57215058 72.50316556 129.89384558 74.12988281 130.21508789 C85.10464316 132.38940698 96.06752212 134.62144738 107 137 C107 137.66 107 138.32 107 139 C106.02111816 139.09704224 106.02111816 139.09704224 105.02246094 139.19604492 C56.05838983 144.19106619 15.0440728 164.21805205 -18 201 C-18.33 201.66 -18.66 202.32 -19 203 C-19.99 202.67 -20.98 202.34 -22 202 C-22.82788086 199.86816406 -22.82788086 199.86816406 -23.46484375 197.015625 C-23.7057373 195.95142334 -23.94663086 194.88722168 -24.19482422 193.79077148 C-24.56244873 192.0380896 -24.56244873 192.0380896 -24.9375 190.25 C-25.19547363 189.03062744 -25.45344727 187.81125488 -25.71923828 186.55493164 C-26.51000764 182.7086039 -27.26346814 178.85706218 -28 175 C-28.21897949 173.86353027 -28.43795898 172.72706055 -28.66357422 171.55615234 C-31.58852161 155.70745173 -32.36551641 140.13559729 -32.375 124.0625 C-32.37699402 123.16667206 -32.37898804 122.27084412 -32.38104248 121.34786987 C-32.37835536 110.71481554 -31.88825522 100.48970319 -30 90 C-35.58085776 87.0603673 -41.04337534 84.80307665 -47.0625 82.9375 C-47.80693359 82.69451172 -48.55136719 82.45152344 -49.31835938 82.20117188 C-63.2118543 77.83265846 -76.80301482 76.45356342 -91.25 75.875 C-93.75773763 75.76651298 -96.26525917 75.65471726 -98.77264404 75.5383606 C-100.31607729 75.46752824 -101.85974548 75.40159337 -103.40362549 75.34127808 C-106.49538125 75.20600308 -109.04599191 74.98466936 -112 74 C-100.22509288 47.92979237 -27.90363364 0 0 0 Z " fill="#03C653" transform="translate(139,820)"/>
<path d="M0 0 C6.08851557 0.97069232 11.02412306 3.85358017 16.4375 6.6875 C17.5411792 7.2640332 18.6448584 7.84056641 19.78198242 8.43457031 C35.27172793 16.65529213 50.34251412 25.96364777 64 37 C65.02738281 37.825 66.05476562 38.65 67.11328125 39.5 C73.30350439 44.56049811 79.13215296 49.93639615 84.8125 55.5625 C85.4297998 56.17053467 86.04709961 56.77856934 86.68310547 57.4050293 C91 61.75333062 91 61.75333062 91 64 C85.83842122 64.88691917 80.79561873 65.15329519 75.56298828 65.28979492 C52.05161016 65.91818143 30.64465302 69.54089714 9 79 C9.2165625 80.33998047 9.2165625 80.33998047 9.4375 81.70703125 C14.69176786 118.29074694 10.79988732 157.75826242 0 193 C-0.66 193 -1.32 193 -2 193 C-3.26953125 191.70703125 -3.26953125 191.70703125 -4.8125 189.8125 C-35.62558204 153.77901976 -77.18267973 133.90774668 -124 129 C-120.97116046 127.31980968 -118.23517807 126.51615157 -114.8359375 125.88671875 C-113.80799072 125.69295654 -112.78004395 125.49919434 -111.72094727 125.29956055 C-110.06470337 124.99659058 -110.06470337 124.99659058 -108.375 124.6875 C-106.03770778 124.25028128 -103.70046984 123.81277235 -101.36328125 123.375 C-100.15623535 123.15070313 -98.94918945 122.92640625 -97.70556641 122.6953125 C-94.0022461 122.00042146 -90.3034363 121.28530019 -86.60546875 120.5625 C-85.42484863 120.33216064 -84.24422852 120.10182129 -83.02783203 119.86450195 C-80.74856891 119.41921545 -78.46958851 118.97247896 -76.19091797 118.52416992 C-75.1598291 118.32412354 -74.12874023 118.12407715 -73.06640625 117.91796875 C-72.15834229 117.74031982 -71.25027832 117.5626709 -70.31469727 117.37963867 C-68 117 -68 117 -65 117 C-64.9175 116.030625 -64.835 115.06125 -64.75 114.0625 C-63.3037986 104.34368946 -57.11618858 95.79618999 -52.1875 87.5 C-51.42545114 86.2091792 -50.66373794 84.91816019 -49.90234375 83.62695312 C-44.54089533 74.54703306 -39.11805093 65.50394079 -33.67553711 56.47241211 C-28.43198943 47.75857413 -23.29333266 38.98562862 -18.1645813 30.20401001 C-12.23600451 20.05753212 -6.19114295 9.98873387 0 0 Z " fill="#03C653" transform="translate(910,829)"/>
<path d="M0 0 C36.96 0 73.92 0 112 0 C112 12.21 112 24.42 112 37 C89.23 37 66.46 37 43 37 C43 46.24 43 55.48 43 65 C64.45 65 85.9 65 108 65 C108 77.21 108 89.42 108 102 C86.55 102 65.1 102 43 102 C43 121.47 43 140.94 43 161 C28.81 161 14.62 161 0 161 C0 107.87 0 54.74 0 0 Z " fill="#FFFEFE" transform="translate(173,430)"/>
<path d="M0 0 C0.54785156 0.55171875 1.09570312 1.1034375 1.66015625 1.671875 C2.10230469 2.11015625 2.54445313 2.5484375 3 3 C5.87486873 2.90417104 7.07400249 1.93999798 9.3125 0.125 C16.38261117 -5.46532046 23.1737665 -5.96286184 32 -5 C39.13738543 -3.02740908 45.35062413 0.99030764 49.25 7.375 C53.33399488 14.64737685 53.27143929 21.93668197 53.1953125 30.05859375 C53.1924826 31.20288345 53.18965271 32.34717316 53.18673706 33.52613831 C53.17558578 37.16336743 53.15049014 40.80034591 53.125 44.4375 C53.11496369 46.91080372 53.10583898 49.38411132 53.09765625 51.85742188 C53.07736877 57.90512103 53.03820952 63.95228154 53 70 C43.76 70 34.52 70 25 70 C24.93941406 66.78636719 24.87882812 63.57273437 24.81640625 60.26171875 C24.75462245 57.15402865 24.69123242 54.04637519 24.62768555 50.9387207 C24.58433687 48.7766444 24.54266175 46.61453387 24.50268555 44.45239258 C24.44498156 41.34706298 24.38128728 38.24190564 24.31640625 35.13671875 C24.29969376 34.16788254 24.28298126 33.19904633 24.26576233 32.20085144 C24.2358445 30.84979057 24.2358445 30.84979057 24.20532227 29.47143555 C24.18200584 28.28229805 24.18200584 28.28229805 24.15821838 27.06913757 C24.06918774 24.80260226 24.06918774 24.80260226 23 22 C21.42270283 21.69597898 19.83746472 21.43296059 18.25 21.1875 C17.36828125 21.03667969 16.4865625 20.88585937 15.578125 20.73046875 C12.84994916 20.76137649 12.84994916 20.76137649 10.87695312 22.8984375 C8.2455488 27.24668939 8.39733348 30.89981919 8.390625 35.89453125 C8.37408875 36.84188644 8.35755249 37.78924164 8.34051514 38.76530457 C8.29206109 41.7811025 8.27066977 44.79639626 8.25 47.8125 C8.22183818 49.86135345 8.19191045 51.91018345 8.16015625 53.95898438 C8.08298804 58.97288758 8.04244433 63.98520227 8 69 C-1.24 69 -10.48 69 -20 69 C-20.02578125 65.87015625 -20.0515625 62.7403125 -20.078125 59.515625 C-20.11653884 56.48395801 -20.16170127 53.45246148 -20.20751953 50.42089844 C-20.23574279 48.3142104 -20.25695056 46.2074162 -20.27099609 44.10058594 C-20.29240661 41.0717122 -20.3390476 38.04411669 -20.390625 35.015625 C-20.39185364 34.07382385 -20.39308228 33.13202271 -20.39434814 32.16168213 C-20.47088829 26.93681229 -20.47088829 26.93681229 -22.85058594 22.40527344 C-25.80804967 20.47170219 -27.53469644 20.42244941 -31 21 C-33.84780619 23.23206431 -34.84997666 24.54992999 -36 28 C-36.11265547 29.36515314 -36.17582586 30.73477212 -36.20532227 32.10424805 C-36.22526749 32.92487228 -36.24521271 33.74549652 -36.26576233 34.59098816 C-36.29083107 35.9129998 -36.29083107 35.9129998 -36.31640625 37.26171875 C-36.33718735 38.16751175 -36.35796844 39.07330475 -36.37937927 40.00654602 C-36.44476558 42.90012016 -36.50370904 45.79378507 -36.5625 48.6875 C-36.6056956 50.64909793 -36.64931023 52.61068668 -36.69335938 54.57226562 C-36.80122443 59.38141874 -36.90037907 64.19064073 -37 69 C-45.91 69 -54.82 69 -64 69 C-64 45.24 -64 21.48 -64 -3 C-55.09 -3 -46.18 -3 -37 -3 C-37 -1.02 -37 0.96 -37 3 C-36.25556641 2.38511719 -36.25556641 2.38511719 -35.49609375 1.7578125 C-24.60852965 -6.87786453 -11.69783196 -7.87994373 0 0 Z " fill="#F7F417" transform="translate(411,806)"/>
<path d="M0 0 C7.816875 -0.0825 15.63375 -0.165 23.6875 -0.25 C26.12729248 -0.28641602 28.56708496 -0.32283203 31.08081055 -0.36035156 C57.65387244 -0.59242428 57.65387244 -0.59242428 68.21875 8.2265625 C75.64359967 15.61884704 79.41982771 22.07640346 79.5 32.5625 C79.51588327 41.79721976 77.49770928 49.08324948 71.11328125 56.0625 C66.765625 60 66.765625 60 64 60 C67.76306788 67.9391554 71.96524157 75.50638976 76.48388672 83.03491211 C76.89525879 83.72206299 77.30663086 84.40921387 77.73046875 85.1171875 C78.09551514 85.72159668 78.46056152 86.32600586 78.83666992 86.94873047 C80.33000795 89.5818944 81.66265566 92.28492414 83 95 C56.30236684 97.52276381 56.30236684 97.52276381 49.67919922 93.63916016 C46.24260043 90.07694157 44.5191731 85.78105209 42.86083984 81.17724609 C41.48729175 77.70325236 39.43485236 74.72391264 37.375 71.625 C34 66.24901186 34 66.24901186 34 64 C32.02 64 30.04 64 28 64 C28 74.23 28 84.46 28 95 C18.76 95 9.52 95 0 95 C0 63.65 0 32.3 0 0 Z " fill="#F8F316" transform="translate(283,694)"/>
<path d="M0 0 C15.38801462 12.76877809 36.27895095 32.37880457 38.34375 53.51953125 C38.8782316 64.51126157 37.01003305 71.70841517 31 81 C30.54496094 81.70640625 30.08992187 82.4128125 29.62109375 83.140625 C23.33360795 91.47388976 12.13644879 97.92072845 2 100 C-7.68824279 100.94136772 -16.11354168 100.30120814 -25 96 C-25.87785156 95.61070312 -26.75570312 95.22140625 -27.66015625 94.8203125 C-41.12938386 88.26981044 -54.94914567 74.75194166 -61 61 C-59.85389242 57.73124614 -57.94583432 55.7532748 -55.4375 53.42578125 C-54.72819336 52.76288086 -54.01888672 52.09998047 -53.28808594 51.41699219 C-52.53301758 50.72250977 -51.77794922 50.02802734 -51 49.3125 C-50.22688477 48.59352539 -49.45376953 47.87455078 -48.65722656 47.13378906 C-43.96050226 42.77578031 -39.22783896 38.45905643 -34.4453125 34.1953125 C-31.47944297 31.53266285 -28.55084007 28.83147704 -25.625 26.125 C-25.07932373 25.62057373 -24.53364746 25.11614746 -23.97143555 24.59643555 C-22.86647825 23.57493276 -21.76157932 22.55336682 -20.65673828 21.53173828 C-17.96102209 19.0394124 -15.26375897 16.54881825 -12.5625 14.0625 C-11.17224609 12.78052734 -11.17224609 12.78052734 -9.75390625 11.47265625 C-7.77357509 9.69457168 -5.80512339 8.0658663 -3.71484375 6.43359375 C-0.70163186 3.74094277 -0.70163186 3.74094277 0 0 Z " fill="#020200" transform="translate(811,160)"/>
<path d="M0 0 C5.07862815 3.92828828 9.07010589 10.54714856 10.1875 16.875 C11.04255268 24.98578546 9.82634853 30.95471304 6.28125 38.28125 C4.9284645 41.02012926 4.9284645 41.02012926 5.1875 44.875 C6.63426152 46.79830687 6.63426152 46.79830687 8.66015625 48.5546875 C9.76327148 49.57755859 9.76327148 49.57755859 10.88867188 50.62109375 C11.66791016 51.32363281 12.44714844 52.02617188 13.25 52.75 C14.00216797 53.44480469 14.75433594 54.13960937 15.52929688 54.85546875 C19.9974294 58.96382957 24.5567069 62.95143294 29.1875 66.875 C24.89813814 70.34419278 20.34738667 71.8337822 15.1875 73.625 C14.28515625 73.95371094 13.3828125 74.28242188 12.453125 74.62109375 C11.58171875 74.92660156 10.7103125 75.23210937 9.8125 75.546875 C9.02101563 75.8262793 8.22953125 76.10568359 7.4140625 76.39355469 C4.80105468 76.95856032 3.64189907 76.93738317 1.1875 75.875 C-1.02319336 73.90966797 -1.02319336 73.90966797 -3.40234375 71.3671875 C-4.26923828 70.46355469 -5.13613281 69.55992187 -6.02929688 68.62890625 C-7.84516487 66.70744938 -9.65506445 64.7803347 -11.45898438 62.84765625 C-12.32716797 61.94660156 -13.19535156 61.04554688 -14.08984375 60.1171875 C-14.87609131 59.2804248 -15.66233887 58.44366211 -16.47241211 57.58154297 C-18.70921372 55.55911921 -18.70921372 55.55911921 -21.60766602 56.10986328 C-22.33526123 56.3623584 -23.06285645 56.61485352 -23.8125 56.875 C-22.55911019 63.36983812 -20.69072468 69.45111297 -18.40161133 75.64477539 C-16.34128809 81.46782366 -16.34128809 81.46782366 -17.8125 84.875 C-19.71435547 86.06347656 -19.71435547 86.06347656 -22.1796875 87.015625 C-23.06527344 87.36367187 -23.95085937 87.71171875 -24.86328125 88.0703125 C-25.79527344 88.41835937 -26.72726562 88.76640625 -27.6875 89.125 C-28.61175781 89.48851562 -29.53601563 89.85203125 -30.48828125 90.2265625 C-37.34833177 92.875 -37.34833177 92.875 -40.8125 92.875 C-44.41601562 82.06445312 -48.01953125 71.25390625 -51.62304688 60.44335938 C-52.01440826 59.26975861 -52.40576965 58.09615784 -52.80899048 56.88699341 C-53.6016456 54.50804995 -54.39312565 52.12871465 -55.18344116 49.74899292 C-57.03180281 44.18804749 -58.889987 38.63119774 -60.79284954 33.0886755 C-61.44270211 31.19440292 -62.08845961 29.29872707 -62.73414612 27.4030304 C-63.54432194 25.02616397 -64.36153948 22.6516832 -65.18663025 20.279953 C-65.72665428 18.68888481 -65.72665428 18.68888481 -66.27758789 17.06567383 C-66.5990126 16.13282059 -66.92043732 15.19996735 -67.25160217 14.23884583 C-67.8125 11.875 -67.8125 11.875 -66.8125 8.875 C-64.48681641 7.48046875 -64.48681641 7.48046875 -61.4140625 6.0625 C-60.29386719 5.54429688 -59.17367188 5.02609375 -58.01953125 4.4921875 C-56.83746094 3.95851563 -55.65539062 3.42484375 -54.4375 2.875 C-53.29410156 2.34132813 -52.15070313 1.80765625 -50.97265625 1.2578125 C-33.98600866 -6.51082496 -16.86948978 -10.32750899 0 0 Z " fill="#030200" transform="translate(405.8125,72.125)"/>
<path d="M0 0 C2.2557675 1.53131909 4.03704473 3.09009757 6 5 C6.33 2.69 6.66 0.38 7 -2 C15.91 -2 24.82 -2 34 -2 C34 22.09 34 46.18 34 71 C25.42 71 16.84 71 8 71 C6.03177114 69.03177114 6.33751619 65.65191291 6 63 C5.41992188 63.48210937 4.83984375 63.96421875 4.2421875 64.4609375 C-3.98777057 71.11552406 -10.36205377 73.09611599 -21 72 C-24.08176536 71.15022875 -26.39990291 69.84217405 -29 68 C-29.73992187 67.48695313 -30.47984375 66.97390625 -31.2421875 66.4453125 C-38.59407225 60.67767227 -44.45741526 51.34624875 -46 42 C-46.91011969 29.72084414 -45.88067525 17.51064561 -37.625 7.70703125 C-26.41763228 -4.06609302 -14.98103418 -7.23620941 0 0 Z " fill="#F3F217" transform="translate(516,805)"/>
<path d="M0 0 C8.61770339 6.18589997 13.97188052 14.29064155 17.3125 24.3125 C18.24900223 36.6074364 17.38670866 47.01546016 9.625 57.1875 C1.01206531 66.17205877 -11.31368034 70.31657774 -23.51196289 70.78540039 C-34.63538404 70.9129652 -42.86959104 68.62703714 -51.58203125 61.42578125 C-60.20740182 52.7684056 -63.92805884 42.75897645 -64.125 30.8125 C-64.08000083 24.20047918 -63.38006906 18.95520709 -59.6875 13.3125 C-59.275 12.63058594 -58.8625 11.94867187 -58.4375 11.24609375 C-52.65074273 2.5823975 -44.16739614 -2.3158667 -34.25390625 -5.03125 C-22.30994188 -7.2290441 -10.50357527 -6.46780558 0 0 Z " fill="#F4F217" transform="translate(427.6875,720.6875)"/>
<path d="M0 0 C7.17612314 6.08212252 13.17334424 14.54549478 14.48730469 24.04174805 C14.62383728 26.28731061 14.65536482 28.50059328 14.625 30.75 C14.61742676 31.53938965 14.60985352 32.3287793 14.60205078 33.14208984 C14.42637828 39.37525784 13.41946512 44.45818618 10.1875 49.875 C9.76339844 50.58914063 9.33929688 51.30328125 8.90234375 52.0390625 C2.31412544 61.83880784 -8.50197973 66.58903294 -19.8125 68.875 C-31.15395496 70.38558414 -41.63570101 68.72824109 -51.125 62.0625 C-59.45858502 55.20855151 -64.77558719 46.63566058 -66.8125 35.875 C-67.89236503 23.90392476 -65.83647014 14.42743439 -58.1875 5 C-43.59733708 -10.13969825 -17.03236049 -12.10872014 0 0 Z " fill="#F6F317" transform="translate(327.8125,808.125)"/>
<path d="M0 0 C3.68802044 1.22934015 4.72356973 2.93859378 7 6 C7.42410156 5.55527344 7.84820313 5.11054687 8.28515625 4.65234375 C10.12282017 2.87930098 11.8342407 1.35882582 14 0 C17.9375 0.125 17.9375 0.125 21 1 C19.79618552 3.49361571 18.54571278 5.68143083 17 8 C18.74023438 7.93039062 18.74023438 7.93039062 20.515625 7.859375 C31.75381394 7.54231389 41.98971512 7.79891044 51.3125 14.9375 C58.90449678 22.24360569 63.07128632 32.12700983 63.375 42.5 C63.26833203 52.77212559 59.75555467 61.41930142 52.65234375 68.890625 C40.38510597 78.64660203 27.26629088 80.94214824 12 80 C2.75203721 78.62040505 -5.85002978 73.52964093 -11.6484375 66.16015625 C-17.10273733 57.44273484 -19.49646297 48.20088923 -18 38 C-15.60331903 28.38930933 -10.32759664 22.43121104 -3 16 C-5.97 15.67 -8.94 15.34 -12 15 C-10 11 -10 11 -7 9 C-4.73828125 8.8046875 -4.73828125 8.8046875 -2.3125 8.875 C-1.10013672 8.90207031 -1.10013672 8.90207031 0.13671875 8.9296875 C1.05904297 8.96449219 1.05904297 8.96449219 2 9 C0.68 7.35 -0.64 5.7 -2 4 C-1.34 2.68 -0.68 1.36 0 0 Z " fill="#F6F417" transform="translate(631,796)"/>
<path d="M0 0 C7.65218294 4.28186412 12.16335942 10.60594868 14.75 18.9375 C15.26047537 23.17960415 15.21826824 27.36134997 15.140625 31.62890625 C15.13496521 32.81475815 15.12930542 34.00061005 15.12347412 35.22239685 C15.10121801 38.9820216 15.0510393 42.74066694 15 46.5 C14.9799212 49.06053304 14.96167286 51.62108113 14.9453125 54.18164062 C14.90480309 60.43426775 14.82648566 66.68479734 14.75 72.9375 C5.51 72.9375 -3.73 72.9375 -13.25 72.9375 C-13.27578125 69.65167969 -13.3015625 66.36585938 -13.328125 62.98046875 C-13.3665215 59.80321631 -13.41168953 56.62612748 -13.45751953 53.44897461 C-13.48577019 51.23844189 -13.50696425 49.02780738 -13.52099609 46.81713867 C-13.54236869 43.64188366 -13.58899031 40.4678578 -13.640625 37.29296875 C-13.64185364 36.30225876 -13.64308228 35.31154877 -13.64434814 34.29081726 C-13.66406677 33.37008926 -13.6837854 32.44936127 -13.70410156 31.50073242 C-13.71298401 30.6902092 -13.72186646 29.87968597 -13.73101807 29.04460144 C-14.09089481 26.78015495 -14.09089481 26.78015495 -16.06536865 25.17964172 C-19.2887507 23.34688521 -21.61219718 23.48277465 -25.25 23.9375 C-27.61497439 25.80458505 -28.91030715 27.25811431 -30.25 29.9375 C-30.36726659 31.32567673 -30.42681406 32.71898714 -30.45532227 34.11181641 C-30.47526749 34.97255768 -30.49521271 35.83329895 -30.51576233 36.72012329 C-30.54083107 38.1154982 -30.54083107 38.1154982 -30.56640625 39.5390625 C-30.58718735 40.49066254 -30.60796844 41.44226257 -30.62937927 42.42269897 C-30.69488133 45.46922432 -30.7537628 48.51583743 -30.8125 51.5625 C-30.85568459 53.62500916 -30.89929886 55.68750937 -30.94335938 57.75 C-31.05137379 62.81241127 -31.15044234 67.87488701 -31.25 72.9375 C-40.49 72.9375 -49.73 72.9375 -59.25 72.9375 C-59.25 48.8475 -59.25 24.7575 -59.25 -0.0625 C-50.01 -0.0625 -40.77 -0.0625 -31.25 -0.0625 C-30.92 2.5775 -30.59 5.2175 -30.25 7.9375 C-29.75371094 7.46699219 -29.25742187 6.99648438 -28.74609375 6.51171875 C-20.07757629 -1.43305152 -11.22944664 -5.11657493 0 0 Z " fill="#F6F317" transform="translate(694.25,717.0625)"/>
<path d="M0 0 C7.78399369 6.49533922 12.03563435 15.17817175 14 25 C14 29.29 14 33.58 14 38 C-2.17 38 -18.34 38 -35 38 C-32.12000932 42.79998447 -30.16979751 45.19590556 -25 47 C-18.85610147 47.91396838 -13.69794944 46.92073547 -8.0078125 44.55859375 C-5.53451227 43.8704966 -4.41606351 44.16924889 -2 45 C-0.26074219 46.30688477 -0.26074219 46.30688477 1.453125 47.94140625 C2.071875 48.52470703 2.690625 49.10800781 3.328125 49.70898438 C3.96234375 50.32064453 4.5965625 50.93230469 5.25 51.5625 C5.8996875 52.17802734 6.549375 52.79355469 7.21875 53.42773438 C8.81880287 54.94543158 10.41213644 56.46957115 12 58 C9.25659652 63.79548601 4.94377251 65.75564199 -0.85546875 68.20703125 C-12.46422389 72.28812156 -24.67562699 72.80614308 -36.25 68.32421875 C-47.42527984 62.94294053 -53.89321429 55.81038576 -58.23828125 44.296875 C-61.38342861 34.81304604 -61.17568391 24.15196888 -57 15 C-51.40293736 5.5189151 -42.4198485 -1.75566008 -31.69921875 -4.61328125 C-20.7118801 -6.1874441 -9.58602415 -6.18313038 0 0 Z " fill="#F7F317" transform="translate(615,704)"/>
<path d="M0 0 C0 7.59 0 15.18 0 23 C-3.63 23.66 -7.26 24.32 -11 25 C-16.56249324 27.35077103 -21.05124322 30.95073494 -23.4140625 36.59765625 C-25.09997889 43.50991344 -25.11291984 51.70095458 -22.17578125 58.28515625 C-18.70886679 63.34155309 -12.94386656 66.83453597 -7 68 C0.09205636 68.69937074 6.22174095 68.51386976 12 64 C19.39035078 56.41213428 20.24488971 48.19398891 21 38 C27.93 38 34.86 38 42 38 C42.46367633 54.22867163 41.66825557 68.33158006 30.1875 81 C19.55458829 90.94691741 7.17265113 93.70902576 -6.99609375 93.3125 C-18.65051825 92.64764098 -30.4678535 86.61645438 -38.40625 78.09765625 C-47.15876684 66.57779953 -50.43354993 52.2388555 -49 38 C-46.33390885 25.64861728 -40.25581545 15.43463645 -30 8 C-20.37823575 2.02142804 -11.27023378 0 0 0 Z " fill="#030200" transform="translate(238,158)"/>
<path d="M0 0 C0.90363281 -0.02900391 1.80726563 -0.05800781 2.73828125 -0.08789062 C11.9609422 -0.17414573 19.11766741 2.86861435 25.890625 9.11328125 C34.54471775 19.34910943 34.75 29.06724059 34.75 42.3125 C18.58 42.3125 2.41 42.3125 -14.25 42.3125 C-10.33923315 48.67496581 -10.33923315 48.67496581 -4.25 51.3125 C3.73863506 52.07131494 10.33396699 51.3291914 17.75 48.3125 C18.1625 48.73660156 18.575 49.16070313 19 49.59765625 C23.39850435 54.06488723 27.98472137 58.2403528 32.75 62.3125 C30.24775887 67.88352743 26.27939297 70.28680128 20.7734375 72.51953125 C8.96828304 76.35959874 -4.18124468 77.60949585 -15.82421875 72.57421875 C-26.41806876 67.064052 -33.15985099 60.66004161 -37.25 49.3125 C-39.85465043 40.15048566 -40.14711454 27.4922447 -35.6875 19 C-34.01171875 16.5 -34.01171875 16.5 -32.25 14.3125 C-31.45529297 13.3225 -31.45529297 13.3225 -30.64453125 12.3125 C-21.93246588 2.71060373 -12.4663267 0.13113247 0 0 Z " fill="#F6F417" transform="translate(737.25,801.6875)"/>
<path d="M0 0 C2.97100833 2.78977035 5.19659143 5.58148913 7.3125 9.0625 C7.84488281 9.91972656 8.37726563 10.77695313 8.92578125 11.66015625 C10 14 10 14 9 17 C7.04150391 18.42285156 7.04150391 18.42285156 4.4765625 19.890625 C3.54231445 20.43243408 2.60806641 20.97424316 1.64550781 21.5324707 C0.64874023 22.09925537 -0.34802734 22.66604004 -1.375 23.25 C-3.38888858 24.41386437 -5.40191939 25.57921433 -7.4140625 26.74609375 C-8.86474121 27.58503174 -8.86474121 27.58503174 -10.34472656 28.44091797 C-14.37505902 30.8073857 -18.28218086 33.33474305 -22.171875 35.92578125 C-24 37 -24 37 -26 37 C-25.4225 37.84304687 -24.845 38.68609375 -24.25 39.5546875 C-23.49975807 40.66129435 -22.74977126 41.76807419 -22 42.875 C-20.88625 44.51082031 -20.88625 44.51082031 -19.75 46.1796875 C-18 49 -18 49 -18 51 C-17.25951416 50.51120361 -16.51902832 50.02240723 -15.75610352 49.51879883 C-12.96775354 47.68043396 -10.17750561 45.84502002 -7.38598633 44.01147461 C-6.18568731 43.22225671 -4.98612233 42.4319211 -3.78735352 41.64038086 C3.00026964 37.15969935 9.79194305 32.78744409 17 29 C26 42.38954469 26 42.38954469 26 45 C23.69651698 46.592834 21.39692271 48.0593082 19 49.5 C17.54153405 50.39301261 16.0832049 51.28624869 14.625 52.1796875 C13.86703125 52.64084961 13.1090625 53.10201172 12.328125 53.57714844 C8.53329423 55.89638855 4.76790524 58.26236614 1 60.625 C-0.35402656 61.4715783 -1.70818027 62.31795329 -3.0625 63.1640625 C-4.031875 63.76992187 -5.00125 64.37578125 -6 65 C-4.81728632 68.08464513 -3.54996095 70.96506639 -1.875 73.8125 C-1.25625 74.864375 -0.6375 75.91625 0 77 C3.82870441 76.42853261 6.44292475 75.34984219 9.6953125 73.26953125 C10.5716333 72.71612061 11.4479541 72.16270996 12.35083008 71.5925293 C13.26630615 71.00511963 14.18178223 70.41770996 15.125 69.8125 C22.30818332 65.27715275 29.46799287 60.93463059 37 57 C39.97 61.62 42.94 66.24 46 71 C42.56536133 74.43463867 40.32410175 76.12052655 36.1875 78.375 C29.46294476 82.10984064 22.87954945 86.05787813 16.3125 90.0625 C15.36334717 90.63983887 14.41419434 91.21717773 13.4362793 91.81201172 C12.50468994 92.38064941 11.57310059 92.94928711 10.61328125 93.53515625 C9.69240723 94.09605957 8.7715332 94.65696289 7.82275391 95.23486328 C5.85553905 96.46501061 3.9111897 97.73216452 1.98583984 99.02685547 C1.01469238 99.6767041 0.04354492 100.32655273 -0.95703125 100.99609375 C-1.82948486 101.59478271 -2.70193848 102.19347168 -3.60083008 102.81030273 C-6 104 -6 104 -8.18701172 103.86206055 C-11.31909288 102.37278253 -12.63331152 99.27525703 -14.3125 96.375 C-15.19536624 94.90731697 -16.08095034 93.44126658 -16.96875 91.9765625 C-17.45085937 91.17766602 -17.93296875 90.37876953 -18.4296875 89.55566406 C-21.29516201 84.89213993 -24.31045588 80.32631483 -27.3125 75.75 C-28.5990067 73.78258371 -29.88546488 71.81513569 -31.171875 69.84765625 C-32.44788281 67.89841534 -33.72392399 65.94919627 -35 64 C-37.35704869 60.39770627 -39.71088033 56.79333971 -42.0625 53.1875 C-42.57401611 52.40665039 -43.08553223 51.62580078 -43.61254883 50.82128906 C-47.21465718 45.29525337 -50.63980628 39.67613347 -54 34 C-52.83723958 33.265625 -51.67447917 32.53125 -50.51171875 31.796875 C-49.75221924 31.31718262 -48.99271973 30.83749023 -48.21020508 30.34326172 C-46.50564607 29.2667155 -44.80105541 28.19021939 -43.09643555 27.11376953 C-38.75366919 24.37126268 -34.41132439 21.62809572 -30.0703125 18.8828125 C-20.06611823 12.55750101 -10.04400144 6.26191538 0 0 Z " fill="#030300" transform="translate(307,97)"/>
<path d="M0 0 C9.22237903 5.58624281 17.87754944 11.88706772 26.58007812 18.23876953 C29.04228192 20.03077298 31.51193661 21.81199211 33.984375 23.58984375 C34.79318115 24.17169434 35.6019873 24.75354492 36.43530273 25.35302734 C37.98120438 26.4647048 39.52756638 27.57574246 41.07446289 28.68603516 C44.7959581 31.36755672 48.44996106 34.09161839 52 37 C50.59601721 41.10110762 48.62912962 43.98089159 45.875 47.3125 C44.78832031 48.63701172 44.78832031 48.63701172 43.6796875 49.98828125 C43.12539063 50.65214844 42.57109375 51.31601563 42 52 C35.28335701 47.93501767 28.97033879 43.54908188 22.79736328 38.71582031 C17.99058071 34.95876166 13.04120759 31.43666973 8 28 C4.80260791 31.08991672 2.39116688 34.24245204 0 38 C1.52140756 42.67289466 5.34285097 44.57141204 9.25 47.125 C10.69351694 48.09124098 12.13620805 49.05871673 13.578125 50.02734375 C14.31095703 50.51702637 15.04378906 51.00670898 15.79882812 51.51123047 C19.24380614 53.8412522 22.62362117 56.25957187 26 58.6875 C26.60489258 59.12143066 27.20978516 59.55536133 27.83300781 60.00244141 C29.22294792 61.00031581 30.61163118 61.99994058 32 63 C29.67172839 66.5328991 27.30727896 70.00404137 24.75 73.375 C24.22921875 74.06335938 23.7084375 74.75171875 23.171875 75.4609375 C22.78515625 75.96882813 22.3984375 76.47671875 22 77 C18.55532087 75.72679403 15.65703712 74.25560019 12.63671875 72.171875 C11.83169922 71.61886719 11.02667969 71.06585938 10.19726562 70.49609375 C9.36904297 69.91988281 8.54082031 69.34367187 7.6875 68.75 C6.87087891 68.18925781 6.05425781 67.62851563 5.21289062 67.05078125 C0.5699595 63.8469738 -3.93076181 60.55087682 -8.29760742 56.97753906 C-9.14029175 56.49365723 -9.14029175 56.49365723 -10 56 C-13.62351253 57.20783751 -14.15215236 58.29653142 -16.1875 61.4375 C-16.71730469 62.24058594 -17.24710938 63.04367188 -17.79296875 63.87109375 C-19.16440464 65.8820898 -19.16440464 65.8820898 -19 68 C-17.50390024 69.35036736 -17.50390024 69.35036736 -15.51953125 70.6875 C-14.7730835 71.21690186 -14.02663574 71.74630371 -13.25756836 72.29174805 C-12.04725952 73.13733276 -12.04725952 73.13733276 -10.8125 74 C-9.1629955 75.17167639 -7.51456662 76.34486845 -5.8671875 77.51953125 C-4.63500488 78.39665771 -4.63500488 78.39665771 -3.37792969 79.29150391 C-0.02219179 81.70253613 3.28202583 84.17531883 6.5625 86.6875 C7.59503906 87.47511719 8.62757813 88.26273437 9.69140625 89.07421875 C12 91 12 91 13 93 C10.03 97.29 7.06 101.58 4 106 C0.01488522 104.40595409 -2.17381479 103.32094744 -5.4140625 100.796875 C-6.24856934 100.15274658 -7.08307617 99.50861816 -7.94287109 98.8449707 C-8.82797363 98.15363037 -9.71307617 97.46229004 -10.625 96.75 C-12.50423035 95.29951331 -14.38446096 93.85032172 -16.265625 92.40234375 C-17.21759766 91.66870605 -18.16957031 90.93506836 -19.15039062 90.17919922 C-23.51997969 86.83761663 -27.94173741 83.56890724 -32.375 80.3125 C-33.14021973 79.74950195 -33.90543945 79.18650391 -34.69384766 78.60644531 C-39.10454623 75.36900233 -43.54106841 72.17066507 -48 69 C-42.59011303 60.18036032 -36.66014162 51.77785187 -30.66650391 43.35058594 C-27.80111559 39.30898636 -24.96363816 35.24791087 -22.125 31.1875 C-21.54975586 30.36540039 -20.97451172 29.54330078 -20.38183594 28.69628906 C-17.26362486 24.23947822 -14.1484816 19.78053748 -11.03515625 15.3203125 C-10.3911084 14.39839111 -9.74706055 13.47646973 -9.08349609 12.52661133 C-7.83947368 10.74579788 -6.5962813 8.96440425 -5.35400391 7.18237305 C-4.7976123 6.38613525 -4.2412207 5.58989746 -3.66796875 4.76953125 C-3.17578857 4.06417236 -2.6836084 3.35881348 -2.17651367 2.63208008 C-1 1 -1 1 0 0 Z " fill="#030200" transform="translate(734,104)"/>
<path d="M0 0 C25.08 0 50.16 0 76 0 C76 8.58 76 17.16 76 26 C68.08 26 60.16 26 52 26 C52 48.77 52 71.54 52 95 C43.09 95 34.18 95 25 95 C25 72.56 25 50.12 25 27 C16.75 27 8.5 27 0 27 C0 18.09 0 9.18 0 0 Z " fill="#F6F417" transform="translate(193,780)"/>
<path d="M0 0 C-2.69319824 5.58507504 -5.40473961 10.9400039 -9 16 C-12.43068925 15.58831729 -15.55963755 15.16146623 -18.8125 13.96875 C-22.33648052 12.89773631 -25.20249083 12.80005083 -28.875 12.875 C-30.02742187 12.89304687 -31.17984375 12.91109375 -32.3671875 12.9296875 C-33.23601563 12.95289063 -34.10484375 12.97609375 -35 13 C-34.67 14.65 -34.34 16.3 -34 18 C-32.56720703 18.03867187 -32.56720703 18.03867187 -31.10546875 18.078125 C-19.77857608 18.5750176 -10.07400466 19.97612251 -1.59375 28.23046875 C3.10078958 33.44278843 3.53724681 38.21610554 3.3515625 45.02734375 C2.53489222 51.93274468 -0.83856847 56.46801134 -6 61 C-6.680625 61.70125 -7.36125 62.4025 -8.0625 63.125 C-18.32005262 69.67237401 -33.19493185 69.55146615 -44.83203125 67.23828125 C-50.49056554 65.60215648 -55.38736098 63.69011121 -60 60 C-59.42334609 55.2128572 -57.35917004 51.74871176 -54.9375 47.6875 C-54.56044922 47.04232422 -54.18339844 46.39714844 -53.79492188 45.73242188 C-52.86962507 44.15121848 -51.93567319 42.5750854 -51 41 C-47.27254383 42.19926851 -43.70345678 43.5410929 -40.125 45.125 C-34.73754686 47.29945398 -30.08838933 48.23535573 -24.5 46 C-24.005 45.67 -23.51 45.34 -23 45 C-23.495 43.02 -23.495 43.02 -24 41 C-24.94359375 40.99742187 -25.8871875 40.99484375 -26.859375 40.9921875 C-36.8630737 40.69087127 -45.21329577 39.13245696 -53.00390625 32.22265625 C-57.86585312 26.86865692 -59.55393426 21.90822863 -59.37109375 14.69140625 C-58.47100326 8.16338152 -55.43303034 2.75881557 -50.3125 -1.375 C-33.97178464 -12.06632306 -16.48020987 -9.04795836 0 0 Z " fill="#F5F317" transform="translate(837,809)"/>
<path d="M0 0 C10.64530232 1.56489302 21.1691782 4.4014782 31.61010742 6.96166992 C34.08995933 7.56922747 36.57124786 8.17064195 39.05273438 8.77148438 C40.65112928 9.16109907 42.2494398 9.55106017 43.84765625 9.94140625 C44.57896255 10.11853653 45.31026886 10.29566681 46.06373596 10.47816467 C50.1139366 11.47536524 54.0628304 12.62251168 58 14 C56.07289294 27.6332574 56.07289294 27.6332574 54 34 C45.22296274 32.72927071 36.78889146 30.75120735 28.25 28.375 C27.0640625 28.05015625 25.878125 27.7253125 24.65625 27.390625 C21.76932831 26.5990497 18.88400863 25.80211089 16 25 C15.90912109 25.88751953 15.90912109 25.88751953 15.81640625 26.79296875 C15.37987629 30.90978208 14.91328654 34.95544533 14 39 C14.969375 39.23074219 15.93875 39.46148437 16.9375 39.69921875 C26.76228636 42.07634261 36.38637554 44.88068568 46 48 C45.45986267 54.69770289 44.07762788 60.62186493 42 67 C34.90937378 65.70443116 28.03708264 63.97250427 21.125 61.9375 C19.29442063 61.40443324 17.46369698 60.87186163 15.6328125 60.33984375 C14.83762207 60.10644287 14.04243164 59.87304199 13.22314453 59.63256836 C11.15750509 59.04481613 9.08656519 58.50779241 7 58 C6.82791016 59.41925781 6.82791016 59.41925781 6.65234375 60.8671875 C5.96011072 65.70186947 4.76073598 70.39493728 3.5625 75.125 C3.34529297 76.00542969 3.12808594 76.88585937 2.90429688 77.79296875 C1.84982077 81.99187359 0.76977961 86.03240106 -1 90 C-3.77124036 89.35587386 -6.54199445 88.70977252 -9.3125 88.0625 C-10.09818359 87.88009766 -10.88386719 87.69769531 -11.69335938 87.50976562 C-12.45068359 87.33251953 -13.20800781 87.15527344 -13.98828125 86.97265625 C-15.03302612 86.72914429 -15.03302612 86.72914429 -16.09887695 86.48071289 C-17.7534406 86.06234435 -19.38094108 85.53968631 -21 85 C-20.41731923 78.66017985 -19.35233285 72.71804577 -17.75 66.5625 C-17.55792969 65.80001953 -17.36585938 65.03753906 -17.16796875 64.25195312 C-16.12400276 60.15816196 -15.02758844 56.08121838 -13.87988281 52.01538086 C-10.50170816 40.0412154 -7.52111692 27.99840654 -4.64599609 15.89477539 C-4.06376095 13.44868062 -3.47735258 11.00361411 -2.890625 8.55859375 C-2.71460754 7.81089218 -2.53859009 7.06319061 -2.35723877 6.29283142 C-1.11291973 1.11291973 -1.11291973 1.11291973 0 0 Z " fill="#040300" transform="translate(590,53)"/>
<path d="M0 0 C9.24 0 18.48 0 28 0 C28 6.93 28 13.86 28 21 C31.63 21 35.26 21 39 21 C39 28.92 39 36.84 39 45 C35.37 45 31.74 45 28 45 C28.14012137 48.64613696 28.28681398 52.29179789 28.4375 55.9375 C28.47681641 56.97841797 28.51613281 58.01933594 28.55664062 59.09179688 C28.59853516 60.08115234 28.64042969 61.07050781 28.68359375 62.08984375 C28.73858032 63.46450806 28.73858032 63.46450806 28.79467773 64.86694336 C28.77003864 66.9820728 28.77003864 66.9820728 30 68 C32.01594582 68.23427778 34.038474 68.41336124 36.0625 68.5625 C38.021875 68.706875 39.98125 68.85125 42 69 C42 76.92 42 84.84 42 93 C15.57045408 93.39154883 15.57045408 93.39154883 7 86 C-0.37033521 77.26409507 -0.28077978 67.40458445 -0.125 56.5 C-0.11146484 54.69402344 -0.11146484 54.69402344 -0.09765625 52.8515625 C-0.07423775 49.9008321 -0.04143993 46.95052311 0 44 C-2.31 44 -4.62 44 -7 44 C-7 36.08 -7 28.16 -7 20 C-4.69 20 -2.38 20 0 20 C0 13.4 0 6.8 0 0 Z " fill="#F6F317" transform="translate(456,697)"/>
<path d="M0 0 C9.24 0 18.48 0 28 0 C28 6.6 28 13.2 28 20 C31.63 20 35.26 20 39 20 C39 27.92 39 35.84 39 44 C35.37 44 31.74 44 28 44 C28.14011038 47.81279106 28.28680438 51.62512562 28.4375 55.4375 C28.47681641 56.52611328 28.51613281 57.61472656 28.55664062 58.73632812 C28.59853516 59.77080078 28.64042969 60.80527344 28.68359375 61.87109375 C28.73858032 63.30859985 28.73858032 63.30859985 28.79467773 64.77514648 C28.75834424 66.97138925 28.75834424 66.97138925 30 68 C32.01594582 68.23427778 34.038474 68.41336124 36.0625 68.5625 C38.021875 68.706875 39.98125 68.85125 42 69 C42 76.59 42 84.18 42 92 C38.41125 92.0825 34.8225 92.165 31.125 92.25 C30.01527832 92.28641602 28.90555664 92.32283203 27.76220703 92.36035156 C20.23149075 92.44312136 13.17552443 91.39091426 7.1628418 86.50805664 C-0.63715729 78.24398438 -0.40246776 68.21344774 -0.1875 57.4375 C-0.17396484 56.14263672 -0.16042969 54.84777344 -0.14648438 53.51367188 C-0.1113737 50.34200786 -0.06219347 47.1712291 0 44 C-2.31 44 -4.62 44 -7 44 C-7 36.08 -7 28.16 -7 20 C-4.69 20 -2.38 20 0 20 C0 13.4 0 6.8 0 0 Z " fill="#F6F317" transform="translate(510,697)"/>
<path d="M0 0 C8.91 0 17.82 0 27 0 C27 6.6 27 13.2 27 20 C30.96 20 34.92 20 39 20 C39 27.92 39 35.84 39 44 C35.04 44 31.08 44 27 44 C27.14012137 47.64613696 27.28681398 51.29179789 27.4375 54.9375 C27.47681641 55.97841797 27.51613281 57.01933594 27.55664062 58.09179688 C27.59853516 59.08115234 27.64042969 60.07050781 27.68359375 61.08984375 C27.73858032 62.46450806 27.73858032 62.46450806 27.79467773 63.86694336 C27.77003864 65.9820728 27.77003864 65.9820728 29 67 C33.32490853 67.4652292 37.65935537 67.70500473 42 68 C42 75.92 42 83.84 42 92 C38.720625 92.061875 35.44125 92.12375 32.0625 92.1875 C30.54088257 92.22846802 30.54088257 92.22846802 28.98852539 92.27026367 C20.32131386 92.34848305 12.84009336 90.56751785 6 85 C-0.8472016 76.63119805 -0.26612634 67.28051085 -0.125 57 C-0.11597656 55.74832031 -0.10695313 54.49664063 -0.09765625 53.20703125 C-0.07422716 50.1378199 -0.04142147 47.06901244 0 44 C-2.64 44 -5.28 44 -8 44 C-8 36.08 -8 28.16 -8 20 C-5.36 20 -2.72 20 0 20 C0 13.4 0 6.8 0 0 Z " fill="#F5F317" transform="translate(565,783)"/>
<path d="M0 0 C0.34234065 1.97762855 0.67335561 3.95721839 1 5.9375 C1.185625 7.03964844 1.37125 8.14179687 1.5625 9.27734375 C2.05779006 13.49173151 2 17.7566079 2 22 C-5.92 22.99 -13.84 23.98 -22 25 C-21.5875 28.320625 -21.175 31.64125 -20.75 35.0625 C-20.60876709 36.20436768 -20.46753418 37.34623535 -20.32202148 38.52270508 C-19.63726191 44.02617504 -18.93513325 49.52651938 -18.18881226 55.0219574 C-17.81720728 57.75877455 -17.45110219 60.49631978 -17.08483887 63.2338562 C-16.81894117 65.20231554 -16.54482563 67.16965929 -16.27050781 69.13696289 C-15.24619446 76.81182536 -14.76580585 84.25813354 -15 92 C-17.37438249 92.3383344 -19.74934959 92.67079002 -22.125 93 C-22.79015625 93.09539062 -23.4553125 93.19078125 -24.140625 93.2890625 C-28.12628981 93.83611453 -31.97859938 94.10022182 -36 94 C-37.2831405 91.433719 -37.42271582 89.20075795 -37.75610352 86.34448242 C-37.89617325 85.15952682 -38.03624298 83.97457123 -38.18055725 82.75370789 C-38.32851242 81.46728897 -38.47646759 80.18087006 -38.62890625 78.85546875 C-38.78417128 77.52506163 -38.93968726 76.19468378 -39.09544373 74.86433411 C-39.42142201 72.07283395 -39.74475153 69.28104335 -40.06616211 66.48901367 C-40.47745922 62.917506 -40.89464289 59.34671665 -41.31375217 55.77611828 C-41.63590419 53.02680715 -41.95522168 50.27717258 -42.27366447 47.52742958 C-42.50048024 45.57249767 -42.72941853 43.61781239 -42.95838928 41.66313171 C-43.16376564 39.8715136 -43.16376564 39.8715136 -43.37329102 38.04370117 C-43.49462906 36.99494308 -43.6159671 35.946185 -43.74098206 34.86564636 C-43.97981732 32.22329114 -44.04892829 29.65102914 -44 27 C-44.79664063 27.30679688 -45.59328125 27.61359375 -46.4140625 27.9296875 C-50.73167601 29.21838696 -54.90392248 29.69001479 -59.375 30.125 C-60.20644531 30.21136719 -61.03789062 30.29773438 -61.89453125 30.38671875 C-63.92907147 30.59718843 -65.9644597 30.79943314 -68 31 C-68.50378767 27.89643568 -69.00237413 24.79205777 -69.5 21.6875 C-69.71462891 20.36588867 -69.71462891 20.36588867 -69.93359375 19.01757812 C-70.13662109 17.74624023 -70.13662109 17.74624023 -70.34375 16.44921875 C-70.53227539 15.27879028 -70.53227539 15.27879028 -70.72460938 14.0847168 C-71 12 -71 12 -71 9 C-64.08298932 7.330129 -57.24302253 6.31988881 -50.17578125 5.52734375 C-48.51823067 5.3353817 -48.51823067 5.3353817 -46.82719421 5.13954163 C-43.32278982 4.73442455 -39.81770233 4.33564854 -36.3125 3.9375 C-32.79672596 3.53465842 -29.28111345 3.13046976 -25.76567078 2.7247467 C-23.58556354 2.47350195 -21.40524299 2.22409937 -19.22468567 1.97679138 C-1.56701218 -0.04608859 -1.56701218 -0.04608859 0 0 Z " fill="#030200" transform="translate(496,44)"/>
<path d="M0 0 C4.81919471 0.67487737 8.91883866 2.57965909 13.3125 4.5625 C14.05306641 4.89185547 14.79363281 5.22121094 15.55664062 5.56054688 C17.37311562 6.36917123 19.18683931 7.18397116 21 8 C20.23974391 11.82369299 18.65916079 15.1442309 17.03515625 18.67578125 C16.73001602 19.34179855 16.42487579 20.00781586 16.11048889 20.6940155 C15.0978981 22.90175907 14.08031675 25.10716139 13.0625 27.3125 C12.35311212 28.85535808 11.64396926 30.39832884 10.93505859 31.94140625 C9.42475671 35.22703048 7.91211696 38.51156579 6.39794922 41.79541016 C4.34591784 46.2467657 2.30043734 50.70109976 0.25675964 55.15629578 C-1.38557281 58.7355352 -3.03036649 62.31363966 -4.67581177 65.89144897 C-5.47395828 67.62762838 -6.27138512 69.36413882 -7.06808472 71.10098267 C-8.18612107 73.53723038 -9.30746146 75.97192994 -10.4296875 78.40625 C-10.76234116 79.13281296 -11.09499481 79.85937592 -11.43772888 80.60795593 C-12.80597887 83.56828165 -14.18669885 86.28004828 -16 89 C-20.86872054 88.40440894 -24.59328841 86.27522585 -28.8125 83.9375 C-29.50537109 83.56044922 -30.19824219 83.18339844 -30.91210938 82.79492188 C-32.61128985 81.86916148 -34.30609425 80.93537688 -36 80 C-33.76774221 72.56182692 -30.62498155 65.68569371 -27.27548218 58.69784546 C-20.26842278 44.06973461 -13.62191954 29.29406241 -7.10473633 14.44213867 C-6.77748566 13.69895386 -6.45023499 12.95576904 -6.11306763 12.19006348 C-5.50044351 10.79829164 -4.89024378 9.40544912 -4.28292847 8.01135254 C-3.02197598 5.1478026 -1.74204984 2.61307476 0 0 Z " fill="#030200" transform="translate(679,79)"/>
<path d="M0 0 C7.26 0 14.52 0 22 0 C22.25886136 18.26590464 21.30423401 36.35336143 20.14575195 54.5692749 C19.89948192 58.46514717 19.66105859 62.36149989 19.421875 66.2578125 C18.95537537 73.83902235 18.47979525 81.41961784 18 89 C6.615 88.505 6.615 88.505 -5 88 C-5 82.08137441 -4.9772628 76.33991063 -4.64868164 70.45825195 C-4.59256966 69.43417236 -4.59256966 69.43417236 -4.5353241 68.3894043 C-4.41306754 66.17219714 -4.28678275 63.95524279 -4.16015625 61.73828125 C-4.0727136 60.1775143 -3.98543114 58.61673836 -3.89830017 57.05595398 C-3.71601762 53.80241418 -3.53170757 50.54899733 -3.34594727 47.2956543 C-3.10885529 43.14017134 -2.87703102 38.98441395 -2.6467371 34.82854939 C-2.46788981 31.61213353 -2.28617038 28.39588475 -2.10360527 25.17967796 C-2.01699631 23.64762601 -1.93128446 22.11552306 -1.84651375 20.5833683 C-1.7275057 18.43992243 -1.60459742 16.29673329 -1.48071289 14.15356445 C-1.41187393 12.93796341 -1.34303497 11.72236237 -1.27210999 10.46992493 C-0.99725878 6.96504415 -0.49718673 3.48030714 0 0 Z " fill="#020200" transform="translate(528,46)"/>
<path d="M0 0 C2.93447357 2.93447357 2.46158423 6.18259456 2.625 10.125 C2.66367187 10.87910156 2.70234375 11.63320313 2.7421875 12.41015625 C2.83651031 14.27303184 2.91934662 16.13648255 3 18 C4.95888205 17.71777385 4.95888205 17.71777385 7 17 C8.06775224 15.03533587 9.06553465 13.03144641 10 11 C11.1875 9.125 11.1875 9.125 13 8 C15.75647363 7.53191957 18.2477107 7.48967969 21 8 C23.71604627 10.2067876 23.95162422 11.53559252 24.3125 15 C23.99875396 18.01196194 23.69910389 19.53043158 22 22 C19.6171875 22.828125 19.6171875 22.828125 16.875 23.25 C15.96492188 23.39953125 15.05484375 23.5490625 14.1171875 23.703125 C13.41851562 23.80109375 12.71984375 23.8990625 12 24 C11.505 26.475 11.505 26.475 11 29 C12.21236328 29.23783203 12.21236328 29.23783203 13.44921875 29.48046875 C18.24412465 30.52736618 22.14812843 31.42662491 26.25 34.1875 C28.72263742 38.16138156 28.60684604 40.37279894 28 45 C24.88521835 47.0765211 22.92681152 47.58940519 19.203125 47.52734375 C14.89210307 46.4954502 11.90755857 43.20484012 9 40 C8.67 39.34 8.34 38.68 8 38 C7.01 38 6.02 38 5 38 C5.165 38.495 5.33 38.99 5.5 39.5 C6.24474593 43.22372964 6.36367323 46.18143109 6 50 C3.8125 52.0625 3.8125 52.0625 1 53 C-1.8110291 52.86614147 -3.3691433 52.46222675 -5.63671875 50.80078125 C-7.55640739 48.26503207 -7.2982287 46.44981305 -7.1875 43.3125 C-7.16042969 42.31863281 -7.13335937 41.32476563 -7.10546875 40.30078125 C-7.07066406 39.54152344 -7.03585937 38.78226563 -7 38 C-10.37082427 38.62075136 -11.13152941 39.12276078 -13.8125 41.625 C-17 44 -17 44 -20.75 43.9375 C-24 43 -24 43 -26 41 C-26.67276051 33.93601463 -26.67276051 33.93601463 -24.5625 31 C-20.73363249 29.5058078 -17.05973579 29.76578447 -13 30 C-13 29.01 -13 28.02 -13 27 C-13.60328125 26.90203125 -14.2065625 26.8040625 -14.828125 26.703125 C-18.59472359 25.99840655 -21.40078682 25.42383372 -24.5625 23.1875 C-26.32908536 20.49921794 -26.56660956 19.15682468 -26 16 C-24.9375 14.1875 -24.9375 14.1875 -23 13 C-19.6875 12.375 -19.6875 12.375 -16 13 C-14.21796662 14.69757682 -12.85175649 16.44298193 -11.45703125 18.46875 C-10.97621094 18.9740625 -10.49539063 19.479375 -10 20 C-8.68 20 -7.36 20 -6 20 C-6.37833598 16.72108813 -7.26119062 15.71332737 -9.5625 13.1875 C-11.76708222 10.65607565 -12.01100505 9.92907857 -12.5625 6.375 C-12 3 -12 3 -10.5 0.5 C-6.66766049 -1.79940371 -4.31567464 -0.97450718 0 0 Z " fill="#07932B" transform="translate(404,727)"/>
<path d="M0 0 C7.63370217 3.16772675 13.53482428 11.6571114 17.19140625 18.84375 C19.00161307 23.6709682 18.43332208 27.57258609 16.9375 32.5 C13.23889993 40.12400108 7.01559759 45.21355689 -0.25 49.25 C-7.77186515 51.30141777 -13.89435311 50.32033153 -20.671875 46.55859375 C-25.66977513 43.2126841 -30.70385753 38.6638181 -33 33 C-31.79220935 29.78398216 -30.00323787 27.80794686 -27.5078125 25.49609375 C-26.80793213 24.8427002 -26.10805176 24.18930664 -25.38696289 23.51611328 C-24.26729126 22.48719971 -24.26729126 22.48719971 -23.125 21.4375 C-22.36501709 20.73093262 -21.60503418 20.02436523 -20.82202148 19.29638672 C-18.55398311 17.1910165 -16.27848355 15.0940566 -14 13 C-13.3591748 12.41009277 -12.71834961 11.82018555 -12.05810547 11.21240234 C-9.45197475 8.81493358 -6.84095118 6.42325953 -4.22265625 4.0390625 C-2.78736099 2.72232414 -1.37729307 1.37729307 0 0 Z " fill="#FBD300" transform="translate(811,191)"/>
<path d="M0 0 C0.34144043 0.94915283 0.68288086 1.89830566 1.03466797 2.8762207 C2.64656668 7.35553767 4.26036971 11.834167 5.875 16.3125 C6.16900696 17.12799316 6.46301392 17.94348633 6.76593018 18.78369141 C10.58618183 29.37461165 14.44412627 39.94956277 18.375 50.5 C21.41992764 58.67584987 24.39492186 66.86788027 27.22998047 75.11889648 C29.04690336 80.37426831 30.95711974 85.59071706 32.91015625 90.796875 C33.42465417 92.17468835 33.93905814 93.55253679 34.45336914 94.93041992 C35.2218091 96.98849126 35.99336821 99.04508957 36.77536011 101.09805298 C37.50419705 103.01164264 38.22178357 104.92912821 38.9375 106.84765625 C39.56978516 108.5184021 39.56978516 108.5184021 40.21484375 110.22290039 C41 113 41 113 40 116 C39.56357178 115.25242432 39.12714355 114.50484863 38.67749023 113.73461914 C31.01556945 100.61777109 23.34066205 87.51112302 15.5 74.5 C9.30269269 64.21535387 3.20457386 53.87563808 -2.83544922 43.49804688 C-6.08485373 37.92227259 -9.36378881 32.37230634 -12.77734375 26.89453125 C-13.34686768 25.97454346 -13.9163916 25.05455566 -14.50317383 24.10668945 C-15.5516303 22.42155175 -16.6119201 20.74369393 -17.6862793 19.07495117 C-19.55595515 16.06084504 -20.89776384 13.77721469 -21.36328125 10.23828125 C-19.03240982 6.41137773 -15.099633 5.31782114 -11.0625 3.6875 C-10.22525391 3.32849609 -9.38800781 2.96949219 -8.52539062 2.59960938 C-2.37050595 0 -2.37050595 0 0 0 Z " fill="#00AC40" transform="translate(139,820)"/>
<path d="M0 0 C3.68674691 0.51651186 6.77463636 1.13772206 10.0859375 2.84765625 C11.13974609 3.38422852 11.13974609 3.38422852 12.21484375 3.93164062 C12.92769531 4.30482422 13.64054688 4.67800781 14.375 5.0625 C15.47908203 5.62807617 15.47908203 5.62807617 16.60546875 6.20507812 C18.40739646 7.12944364 20.20423099 8.06372614 22 9 C18.24003667 15.98113886 14.36947019 22.87500092 10.3125 29.6875 C9.76416504 30.61191895 9.21583008 31.53633789 8.65087891 32.48876953 C7.43333453 34.54072429 6.21486611 36.59213097 4.99560547 38.64306641 C2.47451751 42.88394718 -0.04298181 47.12695237 -2.56053162 51.36993408 C-4.54964053 54.72188829 -6.53977611 58.07322548 -8.53198242 61.42333984 C-12.36614092 67.87191789 -16.19448616 74.32369176 -19.99996948 80.78924561 C-21.74412431 83.75196213 -23.49154482 86.71274624 -25.23919678 89.67340088 C-26.07436843 91.0903666 -26.90792748 92.50828415 -27.73980713 93.92718506 C-28.89538076 95.89790041 -30.05645771 97.86527321 -31.21875 99.83203125 C-32.2077832 101.51389526 -32.2077832 101.51389526 -33.21679688 103.22973633 C-34.67912442 105.50150942 -35.9890689 107.2264489 -38 109 C-36.62968414 101.78455153 -34.36868059 95.11969299 -31.80569458 88.24453735 C-30.47241868 84.66637808 -29.15965034 81.08067117 -27.84375 77.49609375 C-27.55057388 76.69894455 -27.25739777 75.90179535 -26.95533752 75.08049011 C-22.58700415 63.18342825 -18.33361656 51.24471036 -14.0625 39.3125 C-13.23776502 37.01007201 -12.4129776 34.70766279 -11.58813477 32.40527344 C-7.71969667 21.60556156 -3.85486995 10.80456306 0 0 Z " fill="#00AB3F" transform="translate(889,819)"/>
<path d="M0 0 C4.3703833 4.65234351 4.37773386 8.95848728 4.2421875 15.1484375 C3.81878366 19.19791529 2.81784246 21.18215754 -0.0625 24.0625 C-6.30568494 28.16706201 -12.48128097 29.20003344 -19.8984375 29.16015625 C-21.33775635 29.15640991 -21.33775635 29.15640991 -22.80615234 29.15258789 C-24.00449707 29.14348389 -25.2028418 29.13437988 -26.4375 29.125 C-30.27375 29.104375 -34.11 29.08375 -38.0625 29.0625 C-38.0625 18.1725 -38.0625 7.2825 -38.0625 -3.9375 C-25.67193375 -6.00259437 -11.01136216 -6.96637198 0 0 Z " fill="#FA330C" transform="translate(380.0625,473.9375)"/>
<path d="M0 0 C10.42842197 0.59705556 20.6254194 2.10890977 30.91064453 3.84326172 C40.61247682 5.46917591 50.16829663 6.5260125 60 7 C60 7.66 60 8.32 60 9 C48.38292579 11.5729193 36.77494823 14.11780136 25.06640625 16.2421875 C21.9411432 16.81414136 18.82773491 17.43448318 15.71484375 18.0703125 C14.80822998 18.2552124 13.90161621 18.4401123 12.9675293 18.63061523 C11.19359994 18.99413449 9.42029065 19.36069667 7.64770508 19.73071289 C6.84099365 19.89563232 6.03428223 20.06055176 5.203125 20.23046875 C4.48801758 20.37895264 3.77291016 20.52743652 3.03613281 20.68041992 C1 21 1 21 -3 21 C-2.41509194 13.90414165 -1.34941797 6.98830118 0 0 Z " fill="#009C34" transform="translate(785,937)"/>
<path d="M0 0 C4.40617281 2.16303029 7.1644597 4.41114924 9 9 C9.63759149 12.82554895 9.86233647 16.32500901 8.05078125 19.84375 C5.49860287 23.12857265 3.02843577 25.08444642 -1 26 C-5.22970276 26.42451396 -8.80729978 26.45057564 -12.8125 24.9375 C-16.92139699 21.29819123 -18.75305317 17.75949618 -19.5 12.4375 C-18.76286311 7.36968387 -16.67364847 4.47674865 -12.875 1.125 C-8.55651358 -0.56484251 -4.5732948 -0.65960983 0 0 Z " fill="#04922B" transform="translate(306,825)"/>
<path d="M0 0 C0.88055735 6.71424979 1.09200658 13.23353175 1 20 C-8.73642447 18.60552488 -18.38013916 16.85101817 -28.03198242 14.96826172 C-30.45726455 14.4961526 -32.88383835 14.03112105 -35.31054688 13.56640625 C-36.87247835 13.26344596 -38.43433033 12.96007545 -39.99609375 12.65625 C-40.71180038 12.51973022 -41.42750702 12.38321045 -42.16490173 12.24255371 C-46.23306745 11.44168256 -50.09733688 10.39960728 -54 9 C-54 8.67 -54 8.34 -54 8 C-46.79225425 6.85746051 -39.58395061 5.71849332 -32.37524414 4.58203125 C-29.92198846 4.1948375 -27.46886262 3.80682017 -25.01586914 3.41796875 C-21.49398915 2.85982161 -17.97165585 2.3046189 -14.44921875 1.75 C-12.79910042 1.48751465 -12.79910042 1.48751465 -11.11564636 1.21972656 C-10.09481461 1.05956055 -9.07398285 0.89939453 -8.0222168 0.734375 C-7.12286911 0.59225586 -6.22352142 0.45013672 -5.29692078 0.30371094 C-3 0 -3 0 0 0 Z " fill="#009C34" transform="translate(244,937)"/>
<path d="M0 0 C3.00659756 1.54452269 5.11339752 3.17891218 7 6 C8.08565784 10.4377255 7.32415017 14.04555783 5.875 18.3125 C3.53759132 21.66278577 1.70703371 23.25139919 -2 25 C-6.29140119 25.344995 -9.24671975 24.47489407 -12.875 22.1875 C-16.0897621 18.87818607 -17.28851165 16.17625981 -17.3125 11.5625 C-17.20789262 7.58088168 -16.65325778 5.11071602 -14 2 C-9.66289999 -1.82685295 -5.30125015 -1.59850303 0 0 Z " fill="#06932B" transform="translate(515,827)"/>
<path d="M0 0 C3.00197464 1.80118478 4.45166366 2.90332732 6 6 C6.41940491 10.71830527 5.80608252 13.19725392 3 17 C0.29296875 18.765625 0.29296875 18.765625 -2.8125 20.25 C-3.82957031 20.75015625 -4.84664063 21.2503125 -5.89453125 21.765625 C-8.96255043 22.98511438 -11.73359881 23.58986891 -15 24 C-22.1583935 10.17689531 -22.1583935 10.17689531 -21.84765625 5.90625 C-20.65254712 3.21863132 -19.3282037 2.82445951 -16.625 1.75 C-11.08719533 -0.2521905 -5.83801748 -0.95890142 0 0 Z " fill="#FAD100" transform="translate(388,88)"/>
<path d="M0 0 C14.05599104 -0.58566629 14.05599104 -0.58566629 21 4 C23.48386059 7.72579089 23.3804212 9.58711402 23 14 C21.62011478 17.57146764 20.37012782 18.76665855 17.125 20.8125 C11.6904891 22.90179361 5.70373248 22.1764041 0 22 C0 14.74 0 7.48 0 0 Z " fill="#F93508" transform="translate(311,715)"/>
<path d="M0 0 C4.06321581 1.56277531 7.01688254 3.03376507 9 7 C9.79311077 13.00498153 8.37898256 16.21310803 5 21 C2.088853 23.39129932 -1.24514913 23.47101095 -4.96484375 23.39453125 C-8.61727597 22.68647817 -10.43783808 20.62465368 -13 18 C-14.74221711 14.51556578 -14.58675154 10.80112955 -14 7 C-10.57407555 0.81288271 -6.81957483 -0.45463832 0 0 Z " fill="#E9EE18" transform="translate(855,795)"/>
<path d="M0 0 C3 1.6875 3 1.6875 5 4 C5.33 5.98 5.66 7.96 6 10 C-2.25 10 -10.5 10 -19 10 C-16.69791667 3.09375 -16.69791667 3.09375 -12 0 C-7.81129778 -1.39623407 -4.27596349 -0.96021636 0 0 Z " fill="#15992A" transform="translate(742,822)"/>
<path d="M0 0 C2.85138706 1.35912418 3.88726819 2.49808075 6 5 C6.33 6.65 6.66 8.3 7 10 C-1.25 10 -9.5 10 -18 10 C-17.06708109 5.33540544 -16.69581809 3.76312246 -13.0078125 0.95703125 C-8.82317501 -1.03759168 -4.4780769 -0.83050388 0 0 Z " fill="#F93808" transform="translate(598,719)"/>
<path d="M0 0 C2.5 1.625 2.5 1.625 4 4 C4.64250722 7.77472994 4.26836859 9.50620179 2.4375 12.875 C0 15 0 15 -3.4375 15.625 C-7 15 -7 15 -10 12.9375 C-12 10 -12 10 -12 6.375 C-10.05281182 -0.19676012 -6.71761452 -1.2029531 0 0 Z " fill="#15992A" transform="translate(856,799)"/>
<path d="M0 0 C2.33294775 -0.04241723 4.66702567 -0.04092937 7 0 C8 1 8 1 8.09765625 3.06640625 C8.08605469 3.89011719 8.07445312 4.71382812 8.0625 5.5625 C8.05347656 6.38878906 8.04445313 7.21507812 8.03515625 8.06640625 C8.02355469 8.70449219 8.01195312 9.34257813 8 10 C7.01 10 6.02 10 5 10 C4.67 9.34 4.34 8.68 4 8 C3.67 8.66 3.34 9.32 3 10 C2.01 10 1.02 10 0 10 C0 6.7 0 3.4 0 0 Z " fill="#DAE819" transform="translate(848,801)"/>
<path d="M0 0 C0.66 0.33 1.32 0.66 2 1 C2 1.66 2 2.32 2 3 C3.32 2.67 4.64 2.34 6 2 C5.67 3.32 5.34 4.64 5 6 C2.69 6 0.38 6 -2 6 C-2.33 5.01 -2.66 4.02 -3 3 C-2.01 3 -1.02 3 0 3 C0 2.01 0 1.02 0 0 Z " fill="#269F28" transform="translate(851,808)"/>
</svg>
