<?xml version="1.0" encoding="UTF-8"?>
<svg version="1.1" xmlns="http://www.w3.org/2000/svg" width="960" height="978">
<path d="M0 0 C3.128367 2.6249917 4.36517126 5.65281488 5.9765625 9.359375 C6.40008751 10.32546188 6.40008751 10.32546188 6.83216858 11.31106567 C7.76985722 13.45450371 8.69740833 15.60217532 9.625 17.75 C10.28688996 19.26866505 10.94941916 20.78705164 11.61254883 22.30517578 C13.02015894 25.53087831 14.42351374 28.75838614 15.82373047 31.98730469 C17.98849659 36.97764107 20.166939 41.96193022 22.34765625 46.9453125 C30.64952846 65.92755442 38.87609184 84.94088701 47 104 C47.66 104 48.32 104 49 104 C50.25459908 102.2760545 51.42732093 100.49232005 52.5625 98.6875 C61.13169035 85.53263482 71.65296492 72.77558645 84 63 C84.51127441 62.59281738 85.02254883 62.18563477 85.54931641 61.76611328 C106.49973899 45.25197093 129.08070859 36.2118759 156 38 C175.18209774 40.47261683 192.54282499 49.39144737 207 62 C207.88945313 62.76828125 208.77890625 63.5365625 209.6953125 64.328125 C213.86778345 68.00184578 217.60766862 71.57757713 221 76 C220.13217896 76.30852905 220.13217896 76.30852905 219.24682617 76.62329102 C203.33094966 82.25232234 203.33094966 82.25232234 189 91 C188.02933594 91.70189453 188.02933594 91.70189453 187.0390625 92.41796875 C174.31670303 102.3347424 169.76747469 117.79013908 167 133 C167.61818604 132.85900879 168.23637207 132.71801758 168.87329102 132.57275391 C233.63893506 117.89454483 305.1867926 124.33686578 362.94140625 159.3046875 C365.70648206 161.11982028 368.36830551 162.99781382 371 165 C371.77601563 165.56976563 372.55203125 166.13953125 373.3515625 166.7265625 C387.94291398 177.70768269 387.94291398 177.70768269 392.2265625 184.4296875 C395.32070967 188.88918091 399.45044707 191.04060664 404.125 193.625 C430.59818188 208.89388541 455.31435407 227.68525179 477.54345703 248.640625 C479.7660797 250.71497347 482.04030072 252.73026731 484.3125 254.75 C490.67143207 260.46069142 496.62407403 266.42173745 502.18359375 272.9140625 C503.39793673 274.30859831 504.64079066 275.67879256 505.91015625 277.0234375 C524.28163847 296.59679239 539.75428608 320.16612062 552 344 C552.5038623 344.97646484 553.00772461 345.95292969 553.52685547 346.95898438 C597.56412904 433.1551017 600.55992501 534.01279818 567.22998047 656.27685547 C558.75156239 681.94098322 548.54084005 709.27829898 532.32324219 731.19970703 C530.81157924 733.25634958 529.3471551 735.34301102 527.8828125 737.43359375 C521.35507139 746.69468741 514.48049885 755.49394889 507 764 C506.36578125 764.73347656 505.7315625 765.46695313 505.078125 766.22265625 C503.39846161 768.16043306 501.70113149 770.0810476 500 772 C499.36408936 772.72074707 498.72817871 773.44149414 498.07299805 774.18408203 C492.39593941 780.56269694 486.48780772 786.66347892 480.4375 792.6875 C479.54353516 793.58533203 478.64957031 794.48316406 477.72851562 795.40820312 C472.64761646 800.48166864 467.46709252 805.34681795 462 810 C461.03578125 810.845625 460.0715625 811.69125 459.078125 812.5625 C449.42857932 820.8792355 439.28052073 828.48402172 429 836 C428.20207031 836.5868457 427.40414062 837.17369141 426.58203125 837.77832031 C412.32787678 848.20976972 397.32569587 857.25562922 382 866 C380.99453125 866.57637207 379.9890625 867.15274414 378.953125 867.74658203 C309.66416465 907.19636276 226.32486851 931.90753842 146.2578125 932.203125 C144.98336273 932.21013931 143.70891296 932.21715363 142.39584351 932.22438049 C138.30555725 932.24378136 134.21532763 932.24881416 130.125 932.25 C129.42879547 932.25044186 128.73259094 932.25088371 128.01528931 932.25133896 C107.53188793 932.25816066 87.30461356 932.04941083 67 929 C65.79327637 928.82839355 64.58655273 928.65678711 63.34326172 928.47998047 C-31.45224959 914.79449767 -118.40220102 872.55407559 -188.45556641 807.43115234 C-190.07232377 805.93298104 -191.69730208 804.44416059 -193.32421875 802.95703125 C-201.60523541 795.37789735 -209.75784425 787.75165891 -217.06640625 779.2109375 C-218.96575537 777.03915649 -220.92454737 774.93157303 -222.8984375 772.82763672 C-275.60606604 716.35257755 -302.60570218 628.54193701 -309 553 C-309.11085938 551.7315625 -309.22171875 550.463125 -309.3359375 549.15625 C-316.29252375 453.64420094 -284.70994769 361.4502246 -222.41699219 289.04516602 C-218.54561076 284.58046701 -214.58014566 280.20994323 -210.546875 275.890625 C-208.78892074 274.14914802 -208.78892074 274.14914802 -209 272 C-221.87 268.37 -234.74 264.74 -248 261 C-248 260.34 -248 259.68 -248 259 C-246.48986328 258.34257813 -246.48986328 258.34257813 -244.94921875 257.671875 C-229.9336341 250.96493796 -216.51925977 242.06456338 -202.90039062 232.92578125 C-166.72222064 208.70512679 -128.2631297 184.43292928 -84 180 C-95.08485367 176.53598323 -106.09259444 173.5773864 -117.5625 171.6875 C-119.00399414 171.44918457 -119.00399414 171.44918457 -120.47460938 171.20605469 C-131.88860121 169.42139273 -143.20469806 168.80623687 -154.75 168.8125 C-156.00192139 168.81185547 -157.25384277 168.81121094 -158.54370117 168.81054688 C-168.75499574 168.86740192 -178.83206407 169.55102147 -188.98828125 170.5625 C-193.35103276 170.98708255 -197.61846412 171.0821859 -202 171 C-199.07220319 165.0113247 -195.05338331 160.5622461 -190.51953125 155.703125 C-188.4155314 153.44581043 -186.38151716 151.15574303 -184.375 148.8125 C-159.12562976 119.92252289 -122.6438297 100.02949164 -84.14599609 97.12890625 C-60.85425426 95.72981186 -39.26181694 99.30600724 -17 106 C-16.05576172 106.28230469 -15.11152344 106.56460938 -14.13867188 106.85546875 C-11.75842216 107.56803824 -9.37888815 108.28290063 -7 109 C-7.67804688 108.14019531 -8.35609375 107.28039062 -9.0546875 106.39453125 C-14.07847249 100.01668276 -19.07699032 93.62191017 -24.01708984 87.17895508 C-27.65677491 82.43601264 -31.32654638 77.71681889 -35 73 C-40.69382688 65.68722758 -46.35718878 58.35219703 -52 51 C-53.87442875 48.56206043 -55.74971046 46.12477748 -57.625 43.6875 C-58.47136919 42.58725114 -59.31772484 41.48699186 -60.1640625 40.38671875 C-61.07285156 39.20529297 -61.07285156 39.20529297 -62 38 C-58.28844138 33.64250715 -53.5583419 31.29218644 -48.625 28.5625 C-46.7283535 27.49623681 -44.83254697 26.4284784 -42.9375 25.359375 C-41.46990234 24.53276367 -41.46990234 24.53276367 -39.97265625 23.68945312 C-35.15722108 20.95269135 -30.38950551 18.13674305 -25.625 15.3125 C-24.71298828 14.77222168 -23.80097656 14.23194336 -22.86132812 13.67529297 C-15.22448893 9.14419361 -7.60499809 4.58432128 0 0 Z " fill="#F83208" transform="translate(334,22)"/>
<path d="M0 0 C3.128367 2.6249917 4.36517126 5.65281488 5.9765625 9.359375 C6.40008751 10.32546188 6.40008751 10.32546188 6.83216858 11.31106567 C7.76985722 13.45450371 8.69740833 15.60217532 9.625 17.75 C10.28688996 19.26866505 10.94941916 20.78705164 11.61254883 22.30517578 C13.02015894 25.53087831 14.42351374 28.75838614 15.82373047 31.98730469 C17.98849659 36.97764107 20.166939 41.96193022 22.34765625 46.9453125 C30.64952846 65.92755442 38.87609184 84.94088701 47 104 C47.66 104 48.32 104 49 104 C50.25459908 102.2760545 51.42732093 100.49232005 52.5625 98.6875 C61.13169035 85.53263482 71.65296492 72.77558645 84 63 C84.51127441 62.59281738 85.02254883 62.18563477 85.54931641 61.76611328 C106.49973899 45.25197093 129.08070859 36.2118759 156 38 C175.18209774 40.47261683 192.54282499 49.39144737 207 62 C208.33417969 63.15242188 208.33417969 63.15242188 209.6953125 64.328125 C213.86778345 68.00184578 217.60766862 71.57757713 221 76 C220.13217896 76.30852905 220.13217896 76.30852905 219.24682617 76.62329102 C203.33094966 82.25232234 203.33094966 82.25232234 189 91 C188.02933594 91.70189453 188.02933594 91.70189453 187.0390625 92.41796875 C174.31670303 102.3347424 169.76747469 117.79013908 167 133 C167.61818604 132.85900879 168.23637207 132.71801758 168.87329102 132.57275391 C233.63893506 117.89454483 305.1867926 124.33686578 362.94140625 159.3046875 C365.70648206 161.11982028 368.36830551 162.99781382 371 165 C371.77601563 165.56976563 372.55203125 166.13953125 373.3515625 166.7265625 C384.88384804 175.40549904 393.54406412 183.55828087 399 197 C397.82244141 196.69255859 397.82244141 196.69255859 396.62109375 196.37890625 C395.57050781 196.10949219 394.51992188 195.84007812 393.4375 195.5625 C392.40496094 195.29566406 391.37242187 195.02882812 390.30859375 194.75390625 C358.97626121 187.61442552 325.09600711 195.98560422 295.26171875 205.68554688 C285.79624492 208.75393797 276.20753959 211.36728425 266.61376953 214.00097656 C263.38714995 214.89297273 260.16490069 215.79870403 256.94374084 216.71011353 C240.76747224 221.28162434 224.68133824 225.67105793 208 228 C207.20513184 228.11424316 206.41026367 228.22848633 205.59130859 228.34619141 C185.37741616 231.13132662 163.87423097 232.10164411 144 227 C142.80375 226.74476563 141.6075 226.48953125 140.375 226.2265625 C129.51588631 223.71884345 119.89992117 219.01334961 110 214 C110.03109863 214.6487207 110.06219727 215.29744141 110.09423828 215.96582031 C111.17699586 243.21049524 101.37581011 272.07444387 83.09765625 292.24609375 C75.88138663 299.94263086 68.18258337 305.84572238 59 311 C57.90171875 311.62519531 56.8034375 312.25039063 55.671875 312.89453125 C37.02522309 322.84663965 15.80663613 327.18930084 -5 329.75 C-6.55775146 329.94178833 -6.55775146 329.94178833 -8.14697266 330.13745117 C-14.45986591 330.85775158 -20.64776787 331.15810312 -27 331 C-26.44007234 326.67839464 -25.39299454 323.27103667 -23.48828125 319.359375 C-22.98022949 318.29702637 -22.47217773 317.23467773 -21.94873047 316.14013672 C-21.40877441 315.0213916 -20.86881836 313.90264648 -20.3125 312.75 C-15.40132343 302.35711998 -11.15485174 292.05332948 -8 281 C-7.71503662 280.05846069 -7.71503662 280.05846069 -7.42431641 279.09790039 C-3.48776066 265.15549473 -4.91816518 250.24959228 -11.82421875 237.6796875 C-13.49893523 234.7514814 -15.2199682 231.86505118 -17 229 C-20.11032154 230.35115043 -21.83630125 231.73317451 -23.9375 234.375 C-40.62436673 254.01497961 -62.61713845 268.91436099 -87 277 C-87.71462402 277.25257568 -88.42924805 277.50515137 -89.16552734 277.76538086 C-122.81755476 289.49678097 -163.45114223 283.08840446 -197.13671875 274.2109375 C-201.08182485 273.17891846 -205.04841073 272.4036125 -209.0546875 271.64453125 C-217.33685803 270.01787084 -225.35600208 267.72747326 -233.4375 265.3125 C-234.86245434 264.89198173 -236.28758407 264.47205731 -237.71289062 264.05273438 C-241.14396426 263.04195333 -244.5726361 262.02329964 -248 261 C-248 260.34 -248 259.68 -248 259 C-246.48986328 258.34257813 -246.48986328 258.34257813 -244.94921875 257.671875 C-229.9336341 250.96493796 -216.51925977 242.06456338 -202.90039062 232.92578125 C-166.72222064 208.70512679 -128.2631297 184.43292928 -84 180 C-95.08485367 176.53598323 -106.09259444 173.5773864 -117.5625 171.6875 C-119.00399414 171.44918457 -119.00399414 171.44918457 -120.47460938 171.20605469 C-131.88860121 169.42139273 -143.20469806 168.80623687 -154.75 168.8125 C-156.00192139 168.81185547 -157.25384277 168.81121094 -158.54370117 168.81054688 C-168.75499574 168.86740192 -178.83206407 169.55102147 -188.98828125 170.5625 C-193.35103276 170.98708255 -197.61846412 171.0821859 -202 171 C-199.07220319 165.0113247 -195.05338331 160.5622461 -190.51953125 155.703125 C-188.4155314 153.44581043 -186.38151716 151.15574303 -184.375 148.8125 C-159.12562976 119.92252289 -122.6438297 100.02949164 -84.14599609 97.12890625 C-60.85425426 95.72981186 -39.26181694 99.30600724 -17 106 C-15.58364258 106.42345703 -15.58364258 106.42345703 -14.13867188 106.85546875 C-11.75842216 107.56803824 -9.37888815 108.28290063 -7 109 C-7.67804688 108.14019531 -8.35609375 107.28039062 -9.0546875 106.39453125 C-14.07847249 100.01668276 -19.07699032 93.62191017 -24.01708984 87.17895508 C-27.65677491 82.43601264 -31.32654638 77.71681889 -35 73 C-40.69382688 65.68722758 -46.35718878 58.35219703 -52 51 C-53.87442875 48.56206043 -55.74971046 46.12477748 -57.625 43.6875 C-58.47136919 42.58725114 -59.31772484 41.48699186 -60.1640625 40.38671875 C-61.07285156 39.20529297 -61.07285156 39.20529297 -62 38 C-58.28844138 33.64250715 -53.5583419 31.29218644 -48.625 28.5625 C-46.7283535 27.49623681 -44.83254697 26.4284784 -42.9375 25.359375 C-41.46990234 24.53276367 -41.46990234 24.53276367 -39.97265625 23.68945312 C-35.15722108 20.95269135 -30.38950551 18.13674305 -25.625 15.3125 C-24.71298828 14.77222168 -23.80097656 14.23194336 -22.86132812 13.67529297 C-15.22448893 9.14419361 -7.60499809 4.58432128 0 0 Z " fill="#028F2D" transform="translate(334,22)"/>
</svg>
